<?xml version="1.0" encoding="UTF-8" standalone="no"?>
<!-- Created with Inkscape (http://www.inkscape.org/) -->

<svg
   width="124.54062mm"
   height="64.261902mm"
   viewBox="0 0 124.54062 64.261902"
   version="1.1"
   id="svg5"
   inkscape:version="1.2.2 (732a01da63, 2022-12-09, custom)"
   sodipodi:docname="dataflow.svg"
   inkscape:export-filename="../37500965/dp3v2-taskflow.pdf"
   inkscape:export-xdpi="96"
   inkscape:export-ydpi="96"
   xml:space="preserve"
   xmlns:inkscape="http://www.inkscape.org/namespaces/inkscape"
   xmlns:sodipodi="http://sodipodi.sourceforge.net/DTD/sodipodi-0.dtd"
   xmlns="http://www.w3.org/2000/svg"
   xmlns:svg="http://www.w3.org/2000/svg"><sodipodi:namedview
     id="namedview7"
     pagecolor="#505050"
     bordercolor="#eeeeee"
     borderopacity="1"
     inkscape:pageshadow="0"
     inkscape:pageopacity="0"
     inkscape:pagecheckerboard="0"
     inkscape:document-units="mm"
     showgrid="false"
     inkscape:zoom="2.56"
     inkscape:cx="221.48438"
     inkscape:cy="136.71875"
     inkscape:window-width="1920"
     inkscape:window-height="1017"
     inkscape:window-x="319"
     inkscape:window-y="1471"
     inkscape:window-maximized="1"
     inkscape:current-layer="layer1"
     inkscape:showpageshadow="0"
     inkscape:deskcolor="#505050"
     showguides="true"><sodipodi:guide
       position="58.728781,15.866811"
       orientation="0,-1"
       id="guide6202"
       inkscape:locked="false" /><sodipodi:guide
       position="62.115071,23.256653"
       orientation="1,0"
       id="guide5307"
       inkscape:locked="false" /><sodipodi:guide
       position="109.3736,41.934345"
       orientation="1,0"
       id="guide6042"
       inkscape:locked="false" /></sodipodi:namedview><defs
     id="defs2"><marker
       style="overflow:visible"
       id="Arrow2Lstart"
       refX="0"
       refY="0"
       orient="auto"
       inkscape:stockid="Arrow2Lstart"
       inkscape:isstock="true"><path
         transform="matrix(1.1,0,0,1.1,1.1,0)"
         d="M 8.7185878,4.0337352 -2.2072895,0.01601326 8.7185884,-4.0017078 c -1.7454984,2.3720609 -1.7354408,5.6174519 -6e-7,8.035443 z"
         style="fill:context-stroke;fill-rule:evenodd;stroke:context-stroke;stroke-width:0.625;stroke-linejoin:round"
         id="path221763" /></marker><marker
       style="overflow:visible"
       id="Arrow2Lend"
       refX="0"
       refY="0"
       orient="auto"
       inkscape:stockid="Arrow2Lend"
       inkscape:isstock="true"><path
         transform="matrix(-1.1,0,0,-1.1,-1.1,0)"
         d="M 8.7185878,4.0337352 -2.2072895,0.01601326 8.7185884,-4.0017078 c -1.7454984,2.3720609 -1.7354408,5.6174519 -6e-7,8.035443 z"
         style="fill:context-stroke;fill-rule:evenodd;stroke:context-stroke;stroke-width:0.625;stroke-linejoin:round"
         id="path221766" /></marker><marker
       style="overflow:visible"
       id="Arrow1Lend"
       refX="0"
       refY="0"
       orient="auto"
       inkscape:stockid="Arrow1Lend"
       inkscape:isstock="true"><path
         transform="matrix(-0.8,0,0,-0.8,-10,0)"
         style="fill:context-stroke;fill-rule:evenodd;stroke:context-stroke;stroke-width:1pt"
         d="M 0,0 5,-5 -12.5,0 5,5 Z"
         id="path221748" /></marker><marker
       style="overflow:visible"
       id="Arrow2Mstart"
       refX="0"
       refY="0"
       orient="auto"
       inkscape:stockid="Arrow2Mstart"
       inkscape:isstock="true"
       viewBox="0 0 6.9304588 5.1962256"
       markerWidth="6.9304585"
       markerHeight="5.1962256"
       preserveAspectRatio="xMidYMid"><path
         transform="scale(0.6)"
         d="M 8.7185878,4.0337352 -2.2072895,0.01601326 8.7185884,-4.0017078 c -1.7454984,2.3720609 -1.7354408,5.6174519 -6e-7,8.035443 z"
         style="fill:context-stroke;fill-rule:evenodd;stroke:context-stroke;stroke-width:0.625;stroke-linejoin:round"
         id="path221769" /></marker><marker
       style="overflow:visible"
       id="Arrow1Sstart"
       refX="0"
       refY="0"
       orient="auto"
       inkscape:stockid="Arrow1Sstart"
       inkscape:isstock="true"><path
         transform="matrix(0.2,0,0,0.2,1.2,0)"
         style="fill:context-stroke;fill-rule:evenodd;stroke:context-stroke;stroke-width:1pt"
         d="M 0,0 5,-5 -12.5,0 5,5 Z"
         id="path221757" /></marker><marker
       style="overflow:visible"
       id="Arrow2Mend"
       refX="0"
       refY="0"
       orient="auto"
       inkscape:stockid="Arrow2Mend"
       inkscape:isstock="true"
       viewBox="0 0 6.9304588 5.1962256"
       markerWidth="6.9304585"
       markerHeight="5.1962256"
       preserveAspectRatio="xMidYMid"><path
         transform="scale(-0.6)"
         d="M 8.7185878,4.0337352 -2.2072895,0.01601326 8.7185884,-4.0017078 c -1.7454984,2.3720609 -1.7354408,5.6174519 -6e-7,8.035443 z"
         style="fill:context-stroke;fill-rule:evenodd;stroke:context-stroke;stroke-width:0.625;stroke-linejoin:round"
         id="path221772" /></marker><marker
       style="overflow:visible"
       id="Arrow1Lstart"
       refX="0"
       refY="0"
       orient="auto"
       inkscape:stockid="Arrow1Lstart"
       inkscape:isstock="true"><path
         transform="matrix(0.8,0,0,0.8,10,0)"
         style="fill:context-stroke;fill-rule:evenodd;stroke:context-stroke;stroke-width:1pt"
         d="M 0,0 5,-5 -12.5,0 5,5 Z"
         id="path221745" /></marker></defs><g
     inkscape:label="BG"
     inkscape:groupmode="layer"
     id="layer1"
     transform="translate(-5.426537,-50.766598)"
     style="display:inline"
     sodipodi:insensitive="true"><rect
       style="fill:#ffffff;fill-opacity:0.7;stroke:none;stroke-width:0.172443;stroke-linecap:round;stroke-linejoin:round;stroke-miterlimit:0;stroke-dasharray:none;stroke-opacity:1;stop-color:#000000"
       id="rect3478"
       width="124.54062"
       height="64.261902"
       x="5.426537"
       y="50.766598" /></g><g
     inkscape:groupmode="layer"
     id="layer2"
     inkscape:label="Rectangles"
     style="display:inline"
     transform="translate(-5.426537,-50.766598)"><text
       xml:space="preserve"
       style="font-size:4.23333px;line-height:1.25;font-family:sans-serif;stroke-width:0.264583"
       x="182.77768"
       y="65.800842"
       id="text51358"><tspan
         sodipodi:role="line"
         id="tspan51356"
         style="stroke-width:0.264583"
         x="182.77768"
         y="65.800842" /></text><text
       xml:space="preserve"
       style="font-size:7.7611px;line-height:1.05;font-family:sans-serif;-inkscape-font-specification:sans-serif;stroke-width:0.264583"
       x="123.466"
       y="66.247978"
       id="text5664"><tspan
         sodipodi:role="line"
         id="tspan5662"
         style="stroke-width:0.264583"
         x="123.466"
         y="66.247978" /></text></g><g
     inkscape:groupmode="layer"
     id="layer3"
     inkscape:label="Text"
     style="display:inline"
     transform="translate(-5.426537,-50.766598)"><text
       xml:space="preserve"
       style="font-size:4.23333px;line-height:1.25;font-family:sans-serif;stroke-width:0.264583"
       x="114.47881"
       y="106.98804"
       id="text23428"><tspan
         sodipodi:role="line"
         id="tspan23426"
         style="stroke-width:0.264583"
         x="114.47881"
         y="106.98804" /></text></g><style
     type="text/css"
     id="style397">
	.st0{fill:#010101;}
</style><g
     inkscape:groupmode="layer"
     id="layer4"
     inkscape:label="Icons"
     transform="translate(-4.1627378)"><text
       xml:space="preserve"
       style="font-size:2.46944px;line-height:1.25;font-family:sans-serif;display:inline;stroke-width:0.264583"
       x="14.899081"
       y="49.503601"
       id="text1375"><tspan
         sodipodi:role="line"
         id="tspan1373"
         style="font-size:2.46944px;stroke-width:0.264583"
         x="14.899081"
         y="49.503601">Tasks</tspan></text><path
       style="display:inline;fill:none;stroke:#000000;stroke-width:0.4;stroke-linecap:butt;stroke-linejoin:miter;stroke-miterlimit:4;stroke-dasharray:none;stroke-opacity:1;marker-end:url(#Arrow2Mend)"
       d="M 12.273874,50.452893 H 26.295008"
       id="path224745"
       sodipodi:nodetypes="cc" /><path
       style="display:inline;fill:none;stroke:#000000;stroke-width:0.4;stroke-linecap:butt;stroke-linejoin:miter;stroke-miterlimit:4;stroke-dasharray:none;stroke-opacity:1;marker-end:url(#Arrow2Mend)"
       d="m 51.240299,46.285974 8.445379,0.0059 c 4.004722,0 6.033828,-1.591822 6.05949,-6.081603 l 0.005,-0.874786 c 0.0201,-3.517178 2.238253,-5.627116 5.177802,-5.739878 l 2.742144,7.75e-4"
       id="path6105"
       sodipodi:nodetypes="ccsscc" /><text
       xml:space="preserve"
       style="font-size:2.46944px;line-height:1.25;font-family:sans-serif;display:inline;stroke-width:0.264583"
       x="57.781509"
       y="49.810577"
       id="text6109"><tspan
         sodipodi:role="line"
         id="tspan6107"
         style="font-size:2.46944px;stroke-width:0.264583"
         x="57.781509"
         y="49.810577">DPs</tspan><tspan
         sodipodi:role="line"
         style="font-size:2.46944px;stroke-width:0.264583"
         x="57.781509"
         y="52.897377"
         id="tspan6184" /></text><text
       xml:space="preserve"
       style="font-size:2.46944px;line-height:1.25;font-family:sans-serif;display:inline;stroke-width:0.264583"
       x="51.718246"
       y="44.934074"
       id="text6182"><tspan
         sodipodi:role="line"
         id="tspan6180"
         style="font-size:2.46944px;stroke-width:0.264583"
         x="51.718246"
         y="44.934074">Updates</tspan></text><path
       style="display:inline;fill:none;stroke:#000000;stroke-width:0.4;stroke-linecap:butt;stroke-linejoin:miter;stroke-miterlimit:4;stroke-dasharray:none;stroke-opacity:1;marker-end:url(#Arrow2Mend)"
       d="m 88.685327,50.461603 18.828983,0.0655"
       id="path6204"
       sodipodi:nodetypes="cc" /><path
       style="display:inline;fill:none;stroke:#000000;stroke-width:0.4;stroke-linecap:butt;stroke-linejoin:miter;stroke-miterlimit:4;stroke-dasharray:none;stroke-opacity:1;marker-end:url(#Arrow2Mend)"
       d="m 50.868729,50.461603 22.688083,0.0655"
       id="path6475"
       sodipodi:nodetypes="cc" /><text
       xml:space="preserve"
       style="font-size:2.46944px;line-height:1.25;font-family:sans-serif;display:inline;stroke-width:0.264583"
       x="95.767952"
       y="49.810577"
       id="text6481"><tspan
         sodipodi:role="line"
         id="tspan6477"
         style="font-size:2.46944px;stroke-width:0.264583"
         x="95.767952"
         y="49.810577">DPs</tspan><tspan
         sodipodi:role="line"
         style="font-size:2.46944px;stroke-width:0.264583"
         x="95.767952"
         y="52.897377"
         id="tspan6479" /></text><text
       xml:space="preserve"
       style="font-size:2.46944px;line-height:1.25;font-family:sans-serif;display:inline;stroke-width:0.264583"
       x="36.384064"
       y="41.453392"
       id="text642"><tspan
         sodipodi:role="line"
         id="tspan640"
         style="font-size:2.46944px;stroke-width:0.264583"
         x="36.384064"
         y="41.453392">Tasks</tspan></text><path
       d="m 110.62103,48.253943 c 0.75984,0.25389 1.81772,0.41027 2.99243,0.41027 1.17471,0 2.23535,-0.15178 2.99519,-0.41027 0.66692,-0.22262 1.07903,-0.49215 1.07903,-0.75616 0,-0.264006 -0.41211,-0.532619 -1.07903,-0.755234 -0.75984,-0.253892 -1.81772,-0.411194 -2.99243,-0.411194 -1.17471,0 -2.2326,0.157302 -2.99519,0.411194 -1.41204,0.471909 -1.45159,1.025684 0,1.511394 z m 5.70337,6.48527 a 0.45994858,0.45994858 0 1 1 -0.45444,0.45995 0.4544292,0.4544292 0 0 1 0.45444,-0.45995 z m 0,-2.57571 a 0.45534908,0.45534908 0 1 1 -0.45444,0.45995 0.4544292,0.4544292 0 0 1 0.45444,-0.45995 z m 0,-2.67966 a 0.45534908,0.45534908 0 1 1 -0.45444,0.45535 0.4544292,0.4544292 0 0 1 0.45444,-0.45259 z m 1.36144,4.13953 a 3.628994,3.628994 0 0 1 -0.89782,0.42499 c -0.81502,0.27598 -1.93546,0.4434 -3.1718,0.4434 -1.23635,0 -2.35678,-0.16742 -3.17917,-0.44063 a 3.6676297,3.6676297 0 0 1 -0.89046,-0.41855 v 1.73308 c 0.0525,0.24653 0.4526,0.49399 1.07352,0.70096 0.75984,0.25389 1.81772,0.4112 2.99242,0.4112 1.17471,0 2.2326,-0.15731 2.99243,-0.4112 0.45995,-0.15362 0.79939,-0.32932 0.96498,-0.51054 0.13706,-0.14994 0.1159,-0.24838 0.1159,-0.42683 v -1.50311 z m -8.72062,-6.12283 c 0,-0.542738 0.5639,-1.000846 1.47183,-1.305332 0.82239,-0.27321 1.94558,-0.44247 3.17917,-0.44247 1.23358,0 2.35678,0.16926 3.17548,0.44247 0.81871,0.273209 1.37249,0.681642 1.46447,1.159071 a 0.28608802,0.28608802 0 0 1 0.0166,0.09751 v 7.979181 c 0,0.55194 -1.05696,1.04224 -1.47827,1.18299 -0.81871,0.27597 -1.94191,0.44247 -3.17549,0.44247 -1.23358,0 -2.35953,-0.17295 -3.18192,-0.44247 -0.43144,-0.1435 -1.47184,-0.61725 -1.47184,-1.18299 v -0.18397 q 0.007,-3.87461 0,-7.74646 z m 0.58505,5.30229 c 0.0525,0.24653 0.45259,0.49306 1.07076,0.70096 0.75984,0.2539 1.81772,0.41119 2.99243,0.41119 1.17471,0 2.23535,-0.15914 2.99519,-0.41119 0.66692,-0.22262 1.07903,-0.49215 1.07903,-0.75524 v 0 -1.68525 a 3.6602708,3.6602708 0 0 1 -0.89966,0.425 c -0.81871,0.27597 -1.9419,0.44247 -3.17549,0.44247 -1.23358,0 -2.35309,-0.16927 -3.17548,-0.44247 a 3.6676297,3.6676297 0 0 1 -0.88678,-0.41856 z m 0,-2.56284 c 0.0525,0.24654 0.45259,0.49399 1.07353,0.70097 0.75982,0.25389 1.81771,0.4112 2.99242,0.4112 1.17471,0 2.23259,-0.15731 2.99243,-0.4112 0.66692,-0.22262 1.07903,-0.49215 1.07903,-0.75524 v 0 -1.80944 a 3.693387,3.693387 0 0 1 -0.89966,0.425 c -0.81502,0.27321 -1.93546,0.44707 -3.1718,0.44707 -1.23635,0 -2.35678,-0.17386 -3.17917,-0.44707 a 3.6676297,3.6676297 0 0 1 -0.89046,-0.41947 v 1.85818 z"
       id="path662"
       style="display:inline;fill:#0065b3;fill-opacity:1;stroke-width:0.0919892" /><path
       style="display:inline;fill:none;stroke:#000000;stroke-width:0.4;stroke-linecap:butt;stroke-linejoin:miter;stroke-miterlimit:4;stroke-dasharray:none;stroke-opacity:1;marker-end:url(#Arrow2Mend)"
       d="m 49.894074,11.399774 23.611263,0.06546"
       id="path3758"
       sodipodi:nodetypes="cc" /><path
       style="display:inline;fill:none;stroke:#000000;stroke-width:0.4;stroke-linecap:butt;stroke-linejoin:miter;stroke-miterlimit:4;stroke-dasharray:none;stroke-opacity:1;marker-end:url(#Arrow2Mend)"
       d="m 20.803405,11.306443 7.454527,0.06546"
       id="path3760"
       sodipodi:nodetypes="cc" /><path
       style="display:inline;fill:none;stroke:#000000;stroke-width:0.4;stroke-linecap:butt;stroke-linejoin:miter;stroke-miterlimit:4;stroke-dasharray:none;stroke-opacity:1;marker-end:url(#Arrow2Mend)"
       d="m 79.664846,9.070521 20.641794,0.06546"
       id="path3762"
       sodipodi:nodetypes="cc" /><text
       xml:space="preserve"
       style="font-size:2.46944px;line-height:1.25;font-family:sans-serif;display:inline;stroke-width:0.264583"
       x="35.240788"
       y="21.160734"
       id="text5297"><tspan
         sodipodi:role="line"
         id="tspan5295"
         style="font-size:2.46944px;stroke-width:0.264583"
         x="35.240788"
         y="21.160734">Profiles</tspan></text><path
       style="display:inline;fill:none;stroke:#000000;stroke-width:0.4;stroke-linecap:butt;stroke-linejoin:miter;stroke-miterlimit:4;stroke-dasharray:none;stroke-opacity:1;marker-end:url(#Arrow2Mend)"
       d="m 74.274711,29.529517 -3.28379,0.0059 c -4.004722,0 -6.053986,-1.591752 -6.05949,-6.081603 l -0.005,-4.078978 c -0.0043,-3.517233 -2.238253,-5.627116 -5.177802,-5.739878 l -8.967506,7.75e-4"
       id="path5309"
       sodipodi:nodetypes="ccsscc" /><g
       id="g2314"
       transform="translate(-39.416946,-37.045565)"
       style="display:inline"><rect
         style="font-variation-settings:normal;display:inline;opacity:1;vector-effect:none;fill:#a3d4ff;fill-opacity:1;stroke:#0065b3;stroke-width:0.499999;stroke-linecap:butt;stroke-linejoin:miter;stroke-miterlimit:4;stroke-dasharray:none;stroke-dashoffset:0;stroke-opacity:1;-inkscape-stroke:none;stop-color:#000000;stop-opacity:1"
         id="rect1019"
         width="23.674133"
         height="12.366484"
         x="66.725311"
         y="81.800949" /><text
         xml:space="preserve"
         style="font-size:3.52778px;line-height:1.25;font-family:sans-serif;text-align:center;text-anchor:middle;stroke-width:0.264583"
         x="78.546875"
         y="86.916557"
         id="text45604"><tspan
           sodipodi:role="line"
           id="tspan45602"
           style="font-size:3.52778px;text-align:center;text-anchor:middle;stroke-width:0.264583"
           x="78.546875"
           y="86.916557">Processing</tspan><tspan
           sodipodi:role="line"
           style="font-size:3.52778px;text-align:center;text-anchor:middle;stroke-width:0.264583"
           x="78.546875"
           y="91.326279"
           id="tspan45608">core</tspan></text></g><g
       id="g5293"
       transform="translate(5.6759821,-51.539123)"
       style="display:inline"><rect
         style="font-variation-settings:normal;display:inline;vector-effect:none;fill:#ffe07d;fill-opacity:1;stroke:#ff6600;stroke-width:0.499999;stroke-linecap:butt;stroke-linejoin:miter;stroke-miterlimit:4;stroke-dasharray:2, 0.999998;stroke-dashoffset:0;stroke-opacity:1;-inkscape-stroke:none;stop-color:#000000"
         id="rect5286"
         width="33.795841"
         height="10.385416"
         x="18.493505"
         y="76.048653" /><rect
         style="font-variation-settings:normal;display:inline;vector-effect:none;fill:#a3d4ff;fill-opacity:1;stroke:#0065b3;stroke-width:0.499999;stroke-linecap:butt;stroke-linejoin:miter;stroke-miterlimit:4;stroke-dasharray:none;stroke-dashoffset:0;stroke-opacity:1;-inkscape-stroke:none;stop-color:#000000"
         id="rect1047"
         width="33.795841"
         height="10.385416"
         x="16.906004"
         y="77.636154" /><text
         xml:space="preserve"
         style="font-size:3.52778px;line-height:1.25;font-family:sans-serif;text-align:center;text-anchor:middle;stroke-width:0.264583"
         x="33.757416"
         y="81.939163"
         id="text54134"><tspan
           sodipodi:role="line"
           style="font-size:3.52778px;text-align:center;text-anchor:middle;stroke-width:0.264583"
           x="33.757416"
           y="81.939163"
           id="tspan54460">Core &amp; secondary</tspan><tspan
           sodipodi:role="line"
           style="font-size:3.52778px;text-align:center;text-anchor:middle;stroke-width:0.264583"
           x="33.757416"
           y="86.348885"
           id="tspan1756">modules</tspan></text></g><path
       style="display:inline;fill:none;stroke:#000000;stroke-width:0.4;stroke-linecap:butt;stroke-linejoin:miter;stroke-dasharray:none;stroke-opacity:1;marker-end:url(#Arrow2Mend)"
       d="m 45.190273,44.456294 c 1.497023,-2.206958 2.355184,-3.525152 -0.04152,-7.340111"
       id="path1599"
       sodipodi:nodetypes="cc" /><path
       style="display:inline;fill:none;stroke:#000000;stroke-width:0.4;stroke-linecap:butt;stroke-linejoin:miter;stroke-dasharray:none;stroke-opacity:1;marker-end:url(#Arrow2Mend)"
       d="m 34.073812,36.711892 c -1.497023,2.206958 -2.355184,3.525152 0.04152,7.340111"
       id="path2295"
       sodipodi:nodetypes="cc" /><g
       id="g3402"
       transform="translate(29.662058,-78.688878)"
       style="display:inline"><g
         id="g3412"
         transform="translate(5.1864122,0.41293338)"><rect
           style="font-variation-settings:normal;display:inline;opacity:1;vector-effect:none;fill:#a3d4ff;fill-opacity:1;stroke:#0065b3;stroke-width:0.499999;stroke-linecap:butt;stroke-linejoin:miter;stroke-miterlimit:4;stroke-dasharray:none;stroke-dashoffset:0;stroke-opacity:1;-inkscape-stroke:none;stop-color:#000000;stop-opacity:1"
           id="rect3394"
           width="23.674133"
           height="12.366484"
           x="66.915573"
           y="81.579887" /><text
           xml:space="preserve"
           style="font-size:3.52778px;line-height:1.25;font-family:sans-serif;text-align:center;text-anchor:middle;stroke-width:0.264583"
           x="78.890099"
           y="86.695496"
           id="text3400"><tspan
             sodipodi:role="line"
             style="font-size:3.52778px;text-align:center;text-anchor:middle;stroke-width:0.264583"
             x="78.890099"
             y="86.695496"
             id="tspan3398">Web &amp; API</tspan><tspan
             sodipodi:role="line"
             style="font-size:3.52778px;text-align:center;text-anchor:middle;stroke-width:0.264583"
             x="78.890099"
             y="91.105217"
             id="tspan3406">access</tspan></text></g></g><g
       id="g5029"
       transform="translate(3.0638576,-53.293937)"
       style="display:inline"><text
         xml:space="preserve"
         style="font-size:3.52778px;line-height:1.25;font-family:sans-serif;display:inline;stroke-width:0.264583"
         x="67.055626"
         y="93.448029"
         id="text2606"><tspan
           sodipodi:role="line"
           style="font-size:3.52778px;stroke-width:0.264583"
           x="67.055626"
           y="93.448029"
           id="tspan3500">Profile History</tspan></text><g
         id="g5538"
         transform="translate(-29.899501,21.236238)"><g
           id="g5436"
           transform="translate(5.3623645,-5.9349314)"><rect
             style="fill:#ffffff;fill-opacity:1;stroke:none;stroke-width:0;stroke-linecap:round;stroke-linejoin:round;stroke-miterlimit:0;stroke-dasharray:none;stroke-opacity:1;stop-color:#000000"
             id="rect5380"
             width="15.069544"
             height="11.942732"
             x="97.46151"
             y="61.43169"
             rx="1.3563002"
             ry="1.3563002" /><g
             style="fill:#0065b3;fill-opacity:1;stroke:none;stroke-width:68.9927;stroke-dasharray:none;stroke-opacity:1"
             id="g5434"
             transform="matrix(0.02898857,0,0,0.02898857,97.589702,59.996477)"><g
               id="g5432"
               style="fill:#0065b3;fill-opacity:1;stroke:none;stroke-width:68.9927;stroke-dasharray:none;stroke-opacity:1">
	<path
   d="m 39.5,231 h 24 c 4.142,0 7.5,-3.358 7.5,-7.5 0,-4.142 -3.358,-7.5 -7.5,-7.5 h -24 c -4.142,0 -7.5,3.358 -7.5,7.5 0,4.142 3.358,7.5 7.5,7.5 z"
   id="path5382"
   style="fill:#0065b3;fill-opacity:1;stroke:none;stroke-width:68.9927;stroke-dasharray:none;stroke-opacity:1" />
	<path
   d="m 39.5,167 h 168 c 4.142,0 7.5,-3.358 7.5,-7.5 0,-4.142 -3.358,-7.5 -7.5,-7.5 h -168 c -4.142,0 -7.5,3.358 -7.5,7.5 0,4.142 3.358,7.5 7.5,7.5 z"
   id="path5384"
   style="fill:#0065b3;fill-opacity:1;stroke:none;stroke-width:68.9927;stroke-dasharray:none;stroke-opacity:1" />
	<path
   d="m 239.5,167 h 32 c 4.142,0 7.5,-3.358 7.5,-7.5 0,-4.142 -3.358,-7.5 -7.5,-7.5 h -32 c -4.142,0 -7.5,3.358 -7.5,7.5 0,4.142 3.358,7.5 7.5,7.5 z"
   id="path5386"
   style="fill:#0065b3;fill-opacity:1;stroke:none;stroke-width:68.9927;stroke-dasharray:none;stroke-opacity:1" />
	<path
   d="m 375.5,167 h 96 c 4.142,0 7.5,-3.358 7.5,-7.5 0,-4.142 -3.358,-7.5 -7.5,-7.5 h -96 c -4.142,0 -7.5,3.358 -7.5,7.5 0,4.142 3.358,7.5 7.5,7.5 z"
   id="path5388"
   style="fill:#0065b3;fill-opacity:1;stroke:none;stroke-width:68.9927;stroke-dasharray:none;stroke-opacity:1" />
	<path
   d="m 375.5,216 c -1.97,0 -3.91,0.8 -5.3,2.2 -1.4,1.39 -2.2,3.33 -2.2,5.3 0,1.97 0.8,3.91 2.2,5.3 1.39,1.4 3.33,2.2 5.3,2.2 1.97,0 3.91,-0.8 5.3,-2.2 1.4,-1.39 2.2,-3.33 2.2,-5.3 0,-1.97 -0.8,-3.91 -2.2,-5.3 -1.39,-1.4 -3.33,-2.2 -5.3,-2.2 z"
   id="path5390"
   style="fill:#0065b3;fill-opacity:1;stroke:none;stroke-width:68.9927;stroke-dasharray:none;stroke-opacity:1" />
	<path
   d="m 380.8,282.2 c -1.39,-1.4 -3.33,-2.2 -5.3,-2.2 -1.97,0 -3.91,0.8 -5.3,2.2 -1.4,1.39 -2.2,3.33 -2.2,5.3 0,1.97 0.8,3.91 2.2,5.3 1.39,1.4 3.33,2.2 5.3,2.2 1.97,0 3.91,-0.8 5.3,-2.2 1.4,-1.39 2.2,-3.33 2.2,-5.3 0,-1.97 -0.8,-3.91 -2.2,-5.3 z"
   id="path5392"
   style="fill:#0065b3;fill-opacity:1;stroke:none;stroke-width:68.9927;stroke-dasharray:none;stroke-opacity:1" />
	<path
   d="m 375.5,344 c -1.97,0 -3.91,0.8 -5.3,2.2 -1.4,1.39 -2.2,3.33 -2.2,5.3 0,1.97 0.8,3.91 2.2,5.3 1.39,1.4 3.33,2.2 5.3,2.2 1.97,0 3.91,-0.8 5.3,-2.2 1.4,-1.39 2.2,-3.33 2.2,-5.3 0,-1.97 -0.8,-3.91 -2.2,-5.3 -1.39,-1.4 -3.33,-2.2 -5.3,-2.2 z"
   id="path5394"
   style="fill:#0065b3;fill-opacity:1;stroke:none;stroke-width:68.9927;stroke-dasharray:none;stroke-opacity:1" />
	<path
   d="m 407.5,344 c -1.98,0 -3.91,0.8 -5.3,2.2 -1.4,1.39 -2.2,3.33 -2.2,5.3 0,1.97 0.8,3.91 2.2,5.3 1.39,1.4 3.32,2.2 5.3,2.2 1.97,0 3.91,-0.8 5.3,-2.2 1.4,-1.39 2.2,-3.33 2.2,-5.3 0,-1.97 -0.8,-3.91 -2.2,-5.3 -1.39,-1.4 -3.32,-2.2 -5.3,-2.2 z"
   id="path5396"
   style="fill:#0065b3;fill-opacity:1;stroke:none;stroke-width:68.9927;stroke-dasharray:none;stroke-opacity:1" />
	<path
   d="m 375.5,408 c -1.97,0 -3.91,0.8 -5.3,2.2 -1.4,1.39 -2.2,3.33 -2.2,5.3 0,1.97 0.8,3.91 2.2,5.3 1.39,1.4 3.33,2.2 5.3,2.2 1.97,0 3.91,-0.8 5.3,-2.2 1.4,-1.39 2.2,-3.33 2.2,-5.3 0,-1.97 -0.8,-3.91 -2.2,-5.3 -1.39,-1.4 -3.33,-2.2 -5.3,-2.2 z"
   id="path5398"
   style="fill:#0065b3;fill-opacity:1;stroke:none;stroke-width:68.9927;stroke-dasharray:none;stroke-opacity:1" />
	<path
   d="m 407.5,408 c -1.97,0 -3.91,0.8 -5.3,2.2 -1.4,1.39 -2.2,3.33 -2.2,5.3 0,1.97 0.8,3.91 2.2,5.3 1.39,1.4 3.33,2.2 5.3,2.2 1.97,0 3.91,-0.8 5.3,-2.2 1.4,-1.39 2.2,-3.33 2.2,-5.3 0,-1.97 -0.8,-3.91 -2.2,-5.3 -1.39,-1.4 -3.33,-2.2 -5.3,-2.2 z"
   id="path5400"
   style="fill:#0065b3;fill-opacity:1;stroke:none;stroke-width:68.9927;stroke-dasharray:none;stroke-opacity:1" />
	<path
   d="m 444.8,346.2 c -1.39,-1.4 -3.33,-2.2 -5.3,-2.2 -1.97,0 -3.91,0.8 -5.3,2.2 -1.4,1.39 -2.2,3.32 -2.2,5.3 0,1.98 0.8,3.91 2.2,5.3 1.39,1.4 3.33,2.2 5.3,2.2 1.97,0 3.91,-0.8 5.3,-2.2 1.4,-1.39 2.2,-3.33 2.2,-5.3 0,-1.97 -0.8,-3.91 -2.2,-5.3 z"
   id="path5402"
   style="fill:#0065b3;fill-opacity:1;stroke:none;stroke-width:68.9927;stroke-dasharray:none;stroke-opacity:1" />
	<path
   d="m 412.8,218.2 c -1.39,-1.4 -3.32,-2.2 -5.3,-2.2 -1.98,0 -3.91,0.8 -5.3,2.2 -1.4,1.39 -2.2,3.33 -2.2,5.3 0,1.97 0.8,3.91 2.2,5.3 1.39,1.4 3.33,2.2 5.3,2.2 1.97,0 3.91,-0.8 5.3,-2.2 1.4,-1.39 2.2,-3.33 2.2,-5.3 0,-1.97 -0.8,-3.91 -2.2,-5.3 z"
   id="path5404"
   style="fill:#0065b3;fill-opacity:1;stroke:none;stroke-width:68.9927;stroke-dasharray:none;stroke-opacity:1" />
	<path
   d="m 63.5,408 h -24 c -4.142,0 -7.5,3.358 -7.5,7.5 0,4.142 3.358,7.5 7.5,7.5 h 24 c 4.142,0 7.5,-3.358 7.5,-7.5 0,-4.142 -3.358,-7.5 -7.5,-7.5 z"
   id="path5406"
   style="fill:#0065b3;fill-opacity:1;stroke:none;stroke-width:68.9927;stroke-dasharray:none;stroke-opacity:1" />
	<path
   d="m 143.5,103 h 224 c 4.142,0 7.5,-3.358 7.5,-7.5 0,-4.142 -3.358,-7.5 -7.5,-7.5 h -224 c -4.142,0 -7.5,3.358 -7.5,7.5 0,4.142 3.358,7.5 7.5,7.5 z"
   id="path5408"
   style="fill:#0065b3;fill-opacity:1;stroke:none;stroke-width:68.9927;stroke-dasharray:none;stroke-opacity:1" />
	<path
   d="m 39.5,295 h 24 c 4.142,0 7.5,-3.358 7.5,-7.5 0,-4.142 -3.358,-7.5 -7.5,-7.5 h -24 c -4.142,0 -7.5,3.358 -7.5,7.5 0,4.142 3.358,7.5 7.5,7.5 z"
   id="path5410"
   style="fill:#0065b3;fill-opacity:1;stroke:none;stroke-width:68.9927;stroke-dasharray:none;stroke-opacity:1" />
	<path
   d="m 63.5,344 h -24 c -4.142,0 -7.5,3.358 -7.5,7.5 0,4.142 3.358,7.5 7.5,7.5 h 24 c 4.142,0 7.5,-3.358 7.5,-7.5 0,-4.142 -3.358,-7.5 -7.5,-7.5 z"
   id="path5412"
   style="fill:#0065b3;fill-opacity:1;stroke:none;stroke-width:68.9927;stroke-dasharray:none;stroke-opacity:1" />
	<path
   d="m 215.5,344 h -16 c -4.142,0 -7.5,3.358 -7.5,7.5 0,4.142 3.358,7.5 7.5,7.5 h 16 c 4.142,0 7.5,-3.358 7.5,-7.5 0,-4.142 -3.358,-7.5 -7.5,-7.5 z"
   id="path5414"
   style="fill:#0065b3;fill-opacity:1;stroke:none;stroke-width:68.9927;stroke-dasharray:none;stroke-opacity:1" />
	<path
   d="m 199.5,423 h 16 c 4.142,0 7.5,-3.358 7.5,-7.5 0,-4.142 -3.358,-7.5 -7.5,-7.5 h -16 c -4.142,0 -7.5,3.358 -7.5,7.5 0,4.142 3.358,7.5 7.5,7.5 z"
   id="path5416"
   style="fill:#0065b3;fill-opacity:1;stroke:none;stroke-width:68.9927;stroke-dasharray:none;stroke-opacity:1" />
	<path
   d="m 215.5,280 h -16 c -4.142,0 -7.5,3.358 -7.5,7.5 0,4.142 3.358,7.5 7.5,7.5 h 16 c 4.142,0 7.5,-3.358 7.5,-7.5 0,-4.142 -3.358,-7.5 -7.5,-7.5 z"
   id="path5418"
   style="fill:#0065b3;fill-opacity:1;stroke:none;stroke-width:68.9927;stroke-dasharray:none;stroke-opacity:1" />
	<path
   d="m 199.5,231 h 16 c 4.142,0 7.5,-3.358 7.5,-7.5 0,-4.142 -3.358,-7.5 -7.5,-7.5 h -16 c -4.142,0 -7.5,3.358 -7.5,7.5 0,4.142 3.358,7.5 7.5,7.5 z"
   id="path5420"
   style="fill:#0065b3;fill-opacity:1;stroke:none;stroke-width:68.9927;stroke-dasharray:none;stroke-opacity:1" />
	<path
   d="m 247.5,231 h 32 c 4.142,0 7.5,-3.358 7.5,-7.5 0,-4.142 -3.358,-7.5 -7.5,-7.5 h -32 c -4.142,0 -7.5,3.358 -7.5,7.5 0,4.142 3.358,7.5 7.5,7.5 z"
   id="path5422"
   style="fill:#0065b3;fill-opacity:1;stroke:none;stroke-width:68.9927;stroke-dasharray:none;stroke-opacity:1" />
	<path
   d="m 303.5,280 h -56 c -4.142,0 -7.5,3.358 -7.5,7.5 0,4.142 3.358,7.5 7.5,7.5 h 56 c 4.142,0 7.5,-3.358 7.5,-7.5 0,-4.142 -3.358,-7.5 -7.5,-7.5 z"
   id="path5424"
   style="fill:#0065b3;fill-opacity:1;stroke:none;stroke-width:68.9927;stroke-dasharray:none;stroke-opacity:1" />
	<path
   d="m 263.5,344 h -16 c -4.142,0 -7.5,3.358 -7.5,7.5 0,4.142 3.358,7.5 7.5,7.5 h 16 c 4.142,0 7.5,-3.358 7.5,-7.5 0,-4.142 -3.358,-7.5 -7.5,-7.5 z"
   id="path5426"
   style="fill:#0065b3;fill-opacity:1;stroke:none;stroke-width:68.9927;stroke-dasharray:none;stroke-opacity:1" />
	<path
   d="m 247.5,423 h 32 c 4.142,0 7.5,-3.358 7.5,-7.5 0,-4.142 -3.358,-7.5 -7.5,-7.5 h -32 c -4.142,0 -7.5,3.358 -7.5,7.5 0,4.142 3.358,7.5 7.5,7.5 z"
   id="path5428"
   style="fill:#0065b3;fill-opacity:1;stroke:none;stroke-width:68.9927;stroke-dasharray:none;stroke-opacity:1" />
	<path
   d="M 471.5,56 H 39.5 C 17.72,56 0,73.72 0,95.5 v 320 C 0,437.28 17.72,455 39.5,455 h 432 c 21.78,0 39.5,-17.72 39.5,-39.5 V 95.5 C 511,73.72 493.28,56 471.5,56 Z M 175,376 v -49 h 161 v 49 z m 161,15 v 49 H 175 V 391 Z M 496,135 v 49 H 351 v -49 z m -160,64 v 49 H 175 V 199 Z M 160,248 H 15 v -49 h 145 z m 0,15 v 49 H 15 v -49 z m 15,0 h 161 v 49 H 175 Z m 176,0 h 145 v 49 H 351 Z m 0,-15 v -49 h 145 v 49 z M 336,184 H 15 V 135 H 336 Z M 15,327 h 145 v 49 H 15 Z m 336,0 h 145 v 49 H 351 Z M 39.5,71 h 432 C 485.009,71 496,81.991 496,95.5 V 120 H 15 V 95.5 C 15,81.991 25.991,71 39.5,71 Z M 15,415.5 V 391 h 145 v 49 H 39.5 C 25.991,440 15,429.009 15,415.5 Z M 471.5,440 H 351 v -49 h 145 v 24.5 c 0,13.509 -10.991,24.5 -24.5,24.5 z"
   id="path5430"
   style="fill:#0065b3;fill-opacity:1;stroke:none;stroke-width:68.9927;stroke-dasharray:none;stroke-opacity:1" />
</g></g></g><g
           id="g5336"
           transform="translate(3.4375457,-4.0871609)"><rect
             style="fill:#ffffff;fill-opacity:1;stroke:none;stroke-width:0;stroke-linecap:round;stroke-linejoin:round;stroke-miterlimit:0;stroke-dasharray:none;stroke-opacity:1;stop-color:#000000"
             id="rect5046"
             width="15.069544"
             height="11.942732"
             x="97.46151"
             y="61.43169"
             rx="1.3563002"
             ry="1.3563002" /><g
             style="fill:#0065b3;fill-opacity:1;stroke:none;stroke-width:68.9927;stroke-dasharray:none;stroke-opacity:1"
             id="g2988"
             transform="matrix(0.02898857,0,0,0.02898857,97.589702,59.996477)"><g
               id="g2955"
               style="fill:#0065b3;fill-opacity:1;stroke:none;stroke-width:68.9927;stroke-dasharray:none;stroke-opacity:1">
	<path
   d="m 39.5,231 h 24 c 4.142,0 7.5,-3.358 7.5,-7.5 0,-4.142 -3.358,-7.5 -7.5,-7.5 h -24 c -4.142,0 -7.5,3.358 -7.5,7.5 0,4.142 3.358,7.5 7.5,7.5 z"
   id="path2905"
   style="fill:#0065b3;fill-opacity:1;stroke:none;stroke-width:68.9927;stroke-dasharray:none;stroke-opacity:1" />
	<path
   d="m 39.5,167 h 168 c 4.142,0 7.5,-3.358 7.5,-7.5 0,-4.142 -3.358,-7.5 -7.5,-7.5 h -168 c -4.142,0 -7.5,3.358 -7.5,7.5 0,4.142 3.358,7.5 7.5,7.5 z"
   id="path2907"
   style="fill:#0065b3;fill-opacity:1;stroke:none;stroke-width:68.9927;stroke-dasharray:none;stroke-opacity:1" />
	<path
   d="m 239.5,167 h 32 c 4.142,0 7.5,-3.358 7.5,-7.5 0,-4.142 -3.358,-7.5 -7.5,-7.5 h -32 c -4.142,0 -7.5,3.358 -7.5,7.5 0,4.142 3.358,7.5 7.5,7.5 z"
   id="path2909"
   style="fill:#0065b3;fill-opacity:1;stroke:none;stroke-width:68.9927;stroke-dasharray:none;stroke-opacity:1" />
	<path
   d="m 375.5,167 h 96 c 4.142,0 7.5,-3.358 7.5,-7.5 0,-4.142 -3.358,-7.5 -7.5,-7.5 h -96 c -4.142,0 -7.5,3.358 -7.5,7.5 0,4.142 3.358,7.5 7.5,7.5 z"
   id="path2911"
   style="fill:#0065b3;fill-opacity:1;stroke:none;stroke-width:68.9927;stroke-dasharray:none;stroke-opacity:1" />
	<path
   d="m 375.5,216 c -1.97,0 -3.91,0.8 -5.3,2.2 -1.4,1.39 -2.2,3.33 -2.2,5.3 0,1.97 0.8,3.91 2.2,5.3 1.39,1.4 3.33,2.2 5.3,2.2 1.97,0 3.91,-0.8 5.3,-2.2 1.4,-1.39 2.2,-3.33 2.2,-5.3 0,-1.97 -0.8,-3.91 -2.2,-5.3 -1.39,-1.4 -3.33,-2.2 -5.3,-2.2 z"
   id="path2913"
   style="fill:#0065b3;fill-opacity:1;stroke:none;stroke-width:68.9927;stroke-dasharray:none;stroke-opacity:1" />
	<path
   d="m 380.8,282.2 c -1.39,-1.4 -3.33,-2.2 -5.3,-2.2 -1.97,0 -3.91,0.8 -5.3,2.2 -1.4,1.39 -2.2,3.33 -2.2,5.3 0,1.97 0.8,3.91 2.2,5.3 1.39,1.4 3.33,2.2 5.3,2.2 1.97,0 3.91,-0.8 5.3,-2.2 1.4,-1.39 2.2,-3.33 2.2,-5.3 0,-1.97 -0.8,-3.91 -2.2,-5.3 z"
   id="path2915"
   style="fill:#0065b3;fill-opacity:1;stroke:none;stroke-width:68.9927;stroke-dasharray:none;stroke-opacity:1" />
	<path
   d="m 375.5,344 c -1.97,0 -3.91,0.8 -5.3,2.2 -1.4,1.39 -2.2,3.33 -2.2,5.3 0,1.97 0.8,3.91 2.2,5.3 1.39,1.4 3.33,2.2 5.3,2.2 1.97,0 3.91,-0.8 5.3,-2.2 1.4,-1.39 2.2,-3.33 2.2,-5.3 0,-1.97 -0.8,-3.91 -2.2,-5.3 -1.39,-1.4 -3.33,-2.2 -5.3,-2.2 z"
   id="path2917"
   style="fill:#0065b3;fill-opacity:1;stroke:none;stroke-width:68.9927;stroke-dasharray:none;stroke-opacity:1" />
	<path
   d="m 407.5,344 c -1.98,0 -3.91,0.8 -5.3,2.2 -1.4,1.39 -2.2,3.33 -2.2,5.3 0,1.97 0.8,3.91 2.2,5.3 1.39,1.4 3.32,2.2 5.3,2.2 1.97,0 3.91,-0.8 5.3,-2.2 1.4,-1.39 2.2,-3.33 2.2,-5.3 0,-1.97 -0.8,-3.91 -2.2,-5.3 -1.39,-1.4 -3.32,-2.2 -5.3,-2.2 z"
   id="path2919"
   style="fill:#0065b3;fill-opacity:1;stroke:none;stroke-width:68.9927;stroke-dasharray:none;stroke-opacity:1" />
	<path
   d="m 375.5,408 c -1.97,0 -3.91,0.8 -5.3,2.2 -1.4,1.39 -2.2,3.33 -2.2,5.3 0,1.97 0.8,3.91 2.2,5.3 1.39,1.4 3.33,2.2 5.3,2.2 1.97,0 3.91,-0.8 5.3,-2.2 1.4,-1.39 2.2,-3.33 2.2,-5.3 0,-1.97 -0.8,-3.91 -2.2,-5.3 -1.39,-1.4 -3.33,-2.2 -5.3,-2.2 z"
   id="path2921"
   style="fill:#0065b3;fill-opacity:1;stroke:none;stroke-width:68.9927;stroke-dasharray:none;stroke-opacity:1" />
	<path
   d="m 407.5,408 c -1.97,0 -3.91,0.8 -5.3,2.2 -1.4,1.39 -2.2,3.33 -2.2,5.3 0,1.97 0.8,3.91 2.2,5.3 1.39,1.4 3.33,2.2 5.3,2.2 1.97,0 3.91,-0.8 5.3,-2.2 1.4,-1.39 2.2,-3.33 2.2,-5.3 0,-1.97 -0.8,-3.91 -2.2,-5.3 -1.39,-1.4 -3.33,-2.2 -5.3,-2.2 z"
   id="path2923"
   style="fill:#0065b3;fill-opacity:1;stroke:none;stroke-width:68.9927;stroke-dasharray:none;stroke-opacity:1" />
	<path
   d="m 444.8,346.2 c -1.39,-1.4 -3.33,-2.2 -5.3,-2.2 -1.97,0 -3.91,0.8 -5.3,2.2 -1.4,1.39 -2.2,3.32 -2.2,5.3 0,1.98 0.8,3.91 2.2,5.3 1.39,1.4 3.33,2.2 5.3,2.2 1.97,0 3.91,-0.8 5.3,-2.2 1.4,-1.39 2.2,-3.33 2.2,-5.3 0,-1.97 -0.8,-3.91 -2.2,-5.3 z"
   id="path2925"
   style="fill:#0065b3;fill-opacity:1;stroke:none;stroke-width:68.9927;stroke-dasharray:none;stroke-opacity:1" />
	<path
   d="m 412.8,218.2 c -1.39,-1.4 -3.32,-2.2 -5.3,-2.2 -1.98,0 -3.91,0.8 -5.3,2.2 -1.4,1.39 -2.2,3.33 -2.2,5.3 0,1.97 0.8,3.91 2.2,5.3 1.39,1.4 3.33,2.2 5.3,2.2 1.97,0 3.91,-0.8 5.3,-2.2 1.4,-1.39 2.2,-3.33 2.2,-5.3 0,-1.97 -0.8,-3.91 -2.2,-5.3 z"
   id="path2927"
   style="fill:#0065b3;fill-opacity:1;stroke:none;stroke-width:68.9927;stroke-dasharray:none;stroke-opacity:1" />
	<path
   d="m 63.5,408 h -24 c -4.142,0 -7.5,3.358 -7.5,7.5 0,4.142 3.358,7.5 7.5,7.5 h 24 c 4.142,0 7.5,-3.358 7.5,-7.5 0,-4.142 -3.358,-7.5 -7.5,-7.5 z"
   id="path2929"
   style="fill:#0065b3;fill-opacity:1;stroke:none;stroke-width:68.9927;stroke-dasharray:none;stroke-opacity:1" />
	<path
   d="m 143.5,103 h 224 c 4.142,0 7.5,-3.358 7.5,-7.5 0,-4.142 -3.358,-7.5 -7.5,-7.5 h -224 c -4.142,0 -7.5,3.358 -7.5,7.5 0,4.142 3.358,7.5 7.5,7.5 z"
   id="path2931"
   style="fill:#0065b3;fill-opacity:1;stroke:none;stroke-width:68.9927;stroke-dasharray:none;stroke-opacity:1" />
	<path
   d="m 39.5,295 h 24 c 4.142,0 7.5,-3.358 7.5,-7.5 0,-4.142 -3.358,-7.5 -7.5,-7.5 h -24 c -4.142,0 -7.5,3.358 -7.5,7.5 0,4.142 3.358,7.5 7.5,7.5 z"
   id="path2933"
   style="fill:#0065b3;fill-opacity:1;stroke:none;stroke-width:68.9927;stroke-dasharray:none;stroke-opacity:1" />
	<path
   d="m 63.5,344 h -24 c -4.142,0 -7.5,3.358 -7.5,7.5 0,4.142 3.358,7.5 7.5,7.5 h 24 c 4.142,0 7.5,-3.358 7.5,-7.5 0,-4.142 -3.358,-7.5 -7.5,-7.5 z"
   id="path2935"
   style="fill:#0065b3;fill-opacity:1;stroke:none;stroke-width:68.9927;stroke-dasharray:none;stroke-opacity:1" />
	<path
   d="m 215.5,344 h -16 c -4.142,0 -7.5,3.358 -7.5,7.5 0,4.142 3.358,7.5 7.5,7.5 h 16 c 4.142,0 7.5,-3.358 7.5,-7.5 0,-4.142 -3.358,-7.5 -7.5,-7.5 z"
   id="path2937"
   style="fill:#0065b3;fill-opacity:1;stroke:none;stroke-width:68.9927;stroke-dasharray:none;stroke-opacity:1" />
	<path
   d="m 199.5,423 h 16 c 4.142,0 7.5,-3.358 7.5,-7.5 0,-4.142 -3.358,-7.5 -7.5,-7.5 h -16 c -4.142,0 -7.5,3.358 -7.5,7.5 0,4.142 3.358,7.5 7.5,7.5 z"
   id="path2939"
   style="fill:#0065b3;fill-opacity:1;stroke:none;stroke-width:68.9927;stroke-dasharray:none;stroke-opacity:1" />
	<path
   d="m 215.5,280 h -16 c -4.142,0 -7.5,3.358 -7.5,7.5 0,4.142 3.358,7.5 7.5,7.5 h 16 c 4.142,0 7.5,-3.358 7.5,-7.5 0,-4.142 -3.358,-7.5 -7.5,-7.5 z"
   id="path2941"
   style="fill:#0065b3;fill-opacity:1;stroke:none;stroke-width:68.9927;stroke-dasharray:none;stroke-opacity:1" />
	<path
   d="m 199.5,231 h 16 c 4.142,0 7.5,-3.358 7.5,-7.5 0,-4.142 -3.358,-7.5 -7.5,-7.5 h -16 c -4.142,0 -7.5,3.358 -7.5,7.5 0,4.142 3.358,7.5 7.5,7.5 z"
   id="path2943"
   style="fill:#0065b3;fill-opacity:1;stroke:none;stroke-width:68.9927;stroke-dasharray:none;stroke-opacity:1" />
	<path
   d="m 247.5,231 h 32 c 4.142,0 7.5,-3.358 7.5,-7.5 0,-4.142 -3.358,-7.5 -7.5,-7.5 h -32 c -4.142,0 -7.5,3.358 -7.5,7.5 0,4.142 3.358,7.5 7.5,7.5 z"
   id="path2945"
   style="fill:#0065b3;fill-opacity:1;stroke:none;stroke-width:68.9927;stroke-dasharray:none;stroke-opacity:1" />
	<path
   d="m 303.5,280 h -56 c -4.142,0 -7.5,3.358 -7.5,7.5 0,4.142 3.358,7.5 7.5,7.5 h 56 c 4.142,0 7.5,-3.358 7.5,-7.5 0,-4.142 -3.358,-7.5 -7.5,-7.5 z"
   id="path2947"
   style="fill:#0065b3;fill-opacity:1;stroke:none;stroke-width:68.9927;stroke-dasharray:none;stroke-opacity:1" />
	<path
   d="m 263.5,344 h -16 c -4.142,0 -7.5,3.358 -7.5,7.5 0,4.142 3.358,7.5 7.5,7.5 h 16 c 4.142,0 7.5,-3.358 7.5,-7.5 0,-4.142 -3.358,-7.5 -7.5,-7.5 z"
   id="path2949"
   style="fill:#0065b3;fill-opacity:1;stroke:none;stroke-width:68.9927;stroke-dasharray:none;stroke-opacity:1" />
	<path
   d="m 247.5,423 h 32 c 4.142,0 7.5,-3.358 7.5,-7.5 0,-4.142 -3.358,-7.5 -7.5,-7.5 h -32 c -4.142,0 -7.5,3.358 -7.5,7.5 0,4.142 3.358,7.5 7.5,7.5 z"
   id="path2951"
   style="fill:#0065b3;fill-opacity:1;stroke:none;stroke-width:68.9927;stroke-dasharray:none;stroke-opacity:1" />
	<path
   d="M 471.5,56 H 39.5 C 17.72,56 0,73.72 0,95.5 v 320 C 0,437.28 17.72,455 39.5,455 h 432 c 21.78,0 39.5,-17.72 39.5,-39.5 V 95.5 C 511,73.72 493.28,56 471.5,56 Z M 175,376 v -49 h 161 v 49 z m 161,15 v 49 H 175 V 391 Z M 496,135 v 49 H 351 v -49 z m -160,64 v 49 H 175 V 199 Z M 160,248 H 15 v -49 h 145 z m 0,15 v 49 H 15 v -49 z m 15,0 h 161 v 49 H 175 Z m 176,0 h 145 v 49 H 351 Z m 0,-15 v -49 h 145 v 49 z M 336,184 H 15 V 135 H 336 Z M 15,327 h 145 v 49 H 15 Z m 336,0 h 145 v 49 H 351 Z M 39.5,71 h 432 C 485.009,71 496,81.991 496,95.5 V 120 H 15 V 95.5 C 15,81.991 25.991,71 39.5,71 Z M 15,415.5 V 391 h 145 v 49 H 39.5 C 25.991,440 15,429.009 15,415.5 Z M 471.5,440 H 351 v -49 h 145 v 24.5 c 0,13.509 -10.991,24.5 -24.5,24.5 z"
   id="path2953"
   style="fill:#0065b3;fill-opacity:1;stroke:none;stroke-width:68.9927;stroke-dasharray:none;stroke-opacity:1" />
</g></g></g></g></g><g
       id="g5218"
       transform="translate(6.0791793,-52.542047)"
       style="display:inline"><text
         xml:space="preserve"
         style="font-size:3.52778px;line-height:1.25;font-family:sans-serif;display:inline;stroke-width:0.264583"
         x="67.102997"
         y="113.62196"
         id="text5542"><tspan
           sodipodi:role="line"
           id="tspan5540"
           style="font-size:3.52778px;stroke-width:0.264583"
           x="67.102997"
           y="113.62196">DP History</tspan></text><g
         id="g5660"
         transform="translate(-32.914823,41.540281)"><g
           id="g5600"
           transform="translate(5.3623645,-5.9349314)"><rect
             style="fill:#ffffff;fill-opacity:1;stroke:none;stroke-width:0;stroke-linecap:round;stroke-linejoin:round;stroke-miterlimit:0;stroke-dasharray:none;stroke-opacity:1;stop-color:#000000"
             id="rect5544"
             width="15.069544"
             height="11.942732"
             x="97.46151"
             y="61.43169"
             rx="1.3563002"
             ry="1.3563002" /><g
             style="fill:#0065b3;fill-opacity:1;stroke:none;stroke-width:68.9927;stroke-dasharray:none;stroke-opacity:1"
             id="g5598"
             transform="matrix(0.02898857,0,0,0.02898857,97.589702,59.996477)"><g
               id="g5596"
               style="fill:#0065b3;fill-opacity:1;stroke:none;stroke-width:68.9927;stroke-dasharray:none;stroke-opacity:1">
	<path
   d="m 39.5,231 h 24 c 4.142,0 7.5,-3.358 7.5,-7.5 0,-4.142 -3.358,-7.5 -7.5,-7.5 h -24 c -4.142,0 -7.5,3.358 -7.5,7.5 0,4.142 3.358,7.5 7.5,7.5 z"
   id="path5546"
   style="fill:#0065b3;fill-opacity:1;stroke:none;stroke-width:68.9927;stroke-dasharray:none;stroke-opacity:1" />
	<path
   d="m 39.5,167 h 168 c 4.142,0 7.5,-3.358 7.5,-7.5 0,-4.142 -3.358,-7.5 -7.5,-7.5 h -168 c -4.142,0 -7.5,3.358 -7.5,7.5 0,4.142 3.358,7.5 7.5,7.5 z"
   id="path5548"
   style="fill:#0065b3;fill-opacity:1;stroke:none;stroke-width:68.9927;stroke-dasharray:none;stroke-opacity:1" />
	<path
   d="m 239.5,167 h 32 c 4.142,0 7.5,-3.358 7.5,-7.5 0,-4.142 -3.358,-7.5 -7.5,-7.5 h -32 c -4.142,0 -7.5,3.358 -7.5,7.5 0,4.142 3.358,7.5 7.5,7.5 z"
   id="path5550"
   style="fill:#0065b3;fill-opacity:1;stroke:none;stroke-width:68.9927;stroke-dasharray:none;stroke-opacity:1" />
	<path
   d="m 375.5,167 h 96 c 4.142,0 7.5,-3.358 7.5,-7.5 0,-4.142 -3.358,-7.5 -7.5,-7.5 h -96 c -4.142,0 -7.5,3.358 -7.5,7.5 0,4.142 3.358,7.5 7.5,7.5 z"
   id="path5552"
   style="fill:#0065b3;fill-opacity:1;stroke:none;stroke-width:68.9927;stroke-dasharray:none;stroke-opacity:1" />
	<path
   d="m 375.5,216 c -1.97,0 -3.91,0.8 -5.3,2.2 -1.4,1.39 -2.2,3.33 -2.2,5.3 0,1.97 0.8,3.91 2.2,5.3 1.39,1.4 3.33,2.2 5.3,2.2 1.97,0 3.91,-0.8 5.3,-2.2 1.4,-1.39 2.2,-3.33 2.2,-5.3 0,-1.97 -0.8,-3.91 -2.2,-5.3 -1.39,-1.4 -3.33,-2.2 -5.3,-2.2 z"
   id="path5554"
   style="fill:#0065b3;fill-opacity:1;stroke:none;stroke-width:68.9927;stroke-dasharray:none;stroke-opacity:1" />
	<path
   d="m 380.8,282.2 c -1.39,-1.4 -3.33,-2.2 -5.3,-2.2 -1.97,0 -3.91,0.8 -5.3,2.2 -1.4,1.39 -2.2,3.33 -2.2,5.3 0,1.97 0.8,3.91 2.2,5.3 1.39,1.4 3.33,2.2 5.3,2.2 1.97,0 3.91,-0.8 5.3,-2.2 1.4,-1.39 2.2,-3.33 2.2,-5.3 0,-1.97 -0.8,-3.91 -2.2,-5.3 z"
   id="path5556"
   style="fill:#0065b3;fill-opacity:1;stroke:none;stroke-width:68.9927;stroke-dasharray:none;stroke-opacity:1" />
	<path
   d="m 375.5,344 c -1.97,0 -3.91,0.8 -5.3,2.2 -1.4,1.39 -2.2,3.33 -2.2,5.3 0,1.97 0.8,3.91 2.2,5.3 1.39,1.4 3.33,2.2 5.3,2.2 1.97,0 3.91,-0.8 5.3,-2.2 1.4,-1.39 2.2,-3.33 2.2,-5.3 0,-1.97 -0.8,-3.91 -2.2,-5.3 -1.39,-1.4 -3.33,-2.2 -5.3,-2.2 z"
   id="path5558"
   style="fill:#0065b3;fill-opacity:1;stroke:none;stroke-width:68.9927;stroke-dasharray:none;stroke-opacity:1" />
	<path
   d="m 407.5,344 c -1.98,0 -3.91,0.8 -5.3,2.2 -1.4,1.39 -2.2,3.33 -2.2,5.3 0,1.97 0.8,3.91 2.2,5.3 1.39,1.4 3.32,2.2 5.3,2.2 1.97,0 3.91,-0.8 5.3,-2.2 1.4,-1.39 2.2,-3.33 2.2,-5.3 0,-1.97 -0.8,-3.91 -2.2,-5.3 -1.39,-1.4 -3.32,-2.2 -5.3,-2.2 z"
   id="path5560"
   style="fill:#0065b3;fill-opacity:1;stroke:none;stroke-width:68.9927;stroke-dasharray:none;stroke-opacity:1" />
	<path
   d="m 375.5,408 c -1.97,0 -3.91,0.8 -5.3,2.2 -1.4,1.39 -2.2,3.33 -2.2,5.3 0,1.97 0.8,3.91 2.2,5.3 1.39,1.4 3.33,2.2 5.3,2.2 1.97,0 3.91,-0.8 5.3,-2.2 1.4,-1.39 2.2,-3.33 2.2,-5.3 0,-1.97 -0.8,-3.91 -2.2,-5.3 -1.39,-1.4 -3.33,-2.2 -5.3,-2.2 z"
   id="path5562"
   style="fill:#0065b3;fill-opacity:1;stroke:none;stroke-width:68.9927;stroke-dasharray:none;stroke-opacity:1" />
	<path
   d="m 407.5,408 c -1.97,0 -3.91,0.8 -5.3,2.2 -1.4,1.39 -2.2,3.33 -2.2,5.3 0,1.97 0.8,3.91 2.2,5.3 1.39,1.4 3.33,2.2 5.3,2.2 1.97,0 3.91,-0.8 5.3,-2.2 1.4,-1.39 2.2,-3.33 2.2,-5.3 0,-1.97 -0.8,-3.91 -2.2,-5.3 -1.39,-1.4 -3.33,-2.2 -5.3,-2.2 z"
   id="path5564"
   style="fill:#0065b3;fill-opacity:1;stroke:none;stroke-width:68.9927;stroke-dasharray:none;stroke-opacity:1" />
	<path
   d="m 444.8,346.2 c -1.39,-1.4 -3.33,-2.2 -5.3,-2.2 -1.97,0 -3.91,0.8 -5.3,2.2 -1.4,1.39 -2.2,3.32 -2.2,5.3 0,1.98 0.8,3.91 2.2,5.3 1.39,1.4 3.33,2.2 5.3,2.2 1.97,0 3.91,-0.8 5.3,-2.2 1.4,-1.39 2.2,-3.33 2.2,-5.3 0,-1.97 -0.8,-3.91 -2.2,-5.3 z"
   id="path5566"
   style="fill:#0065b3;fill-opacity:1;stroke:none;stroke-width:68.9927;stroke-dasharray:none;stroke-opacity:1" />
	<path
   d="m 412.8,218.2 c -1.39,-1.4 -3.32,-2.2 -5.3,-2.2 -1.98,0 -3.91,0.8 -5.3,2.2 -1.4,1.39 -2.2,3.33 -2.2,5.3 0,1.97 0.8,3.91 2.2,5.3 1.39,1.4 3.33,2.2 5.3,2.2 1.97,0 3.91,-0.8 5.3,-2.2 1.4,-1.39 2.2,-3.33 2.2,-5.3 0,-1.97 -0.8,-3.91 -2.2,-5.3 z"
   id="path5568"
   style="fill:#0065b3;fill-opacity:1;stroke:none;stroke-width:68.9927;stroke-dasharray:none;stroke-opacity:1" />
	<path
   d="m 63.5,408 h -24 c -4.142,0 -7.5,3.358 -7.5,7.5 0,4.142 3.358,7.5 7.5,7.5 h 24 c 4.142,0 7.5,-3.358 7.5,-7.5 0,-4.142 -3.358,-7.5 -7.5,-7.5 z"
   id="path5570"
   style="fill:#0065b3;fill-opacity:1;stroke:none;stroke-width:68.9927;stroke-dasharray:none;stroke-opacity:1" />
	<path
   d="m 143.5,103 h 224 c 4.142,0 7.5,-3.358 7.5,-7.5 0,-4.142 -3.358,-7.5 -7.5,-7.5 h -224 c -4.142,0 -7.5,3.358 -7.5,7.5 0,4.142 3.358,7.5 7.5,7.5 z"
   id="path5572"
   style="fill:#0065b3;fill-opacity:1;stroke:none;stroke-width:68.9927;stroke-dasharray:none;stroke-opacity:1" />
	<path
   d="m 39.5,295 h 24 c 4.142,0 7.5,-3.358 7.5,-7.5 0,-4.142 -3.358,-7.5 -7.5,-7.5 h -24 c -4.142,0 -7.5,3.358 -7.5,7.5 0,4.142 3.358,7.5 7.5,7.5 z"
   id="path5574"
   style="fill:#0065b3;fill-opacity:1;stroke:none;stroke-width:68.9927;stroke-dasharray:none;stroke-opacity:1" />
	<path
   d="m 63.5,344 h -24 c -4.142,0 -7.5,3.358 -7.5,7.5 0,4.142 3.358,7.5 7.5,7.5 h 24 c 4.142,0 7.5,-3.358 7.5,-7.5 0,-4.142 -3.358,-7.5 -7.5,-7.5 z"
   id="path5576"
   style="fill:#0065b3;fill-opacity:1;stroke:none;stroke-width:68.9927;stroke-dasharray:none;stroke-opacity:1" />
	<path
   d="m 215.5,344 h -16 c -4.142,0 -7.5,3.358 -7.5,7.5 0,4.142 3.358,7.5 7.5,7.5 h 16 c 4.142,0 7.5,-3.358 7.5,-7.5 0,-4.142 -3.358,-7.5 -7.5,-7.5 z"
   id="path5578"
   style="fill:#0065b3;fill-opacity:1;stroke:none;stroke-width:68.9927;stroke-dasharray:none;stroke-opacity:1" />
	<path
   d="m 199.5,423 h 16 c 4.142,0 7.5,-3.358 7.5,-7.5 0,-4.142 -3.358,-7.5 -7.5,-7.5 h -16 c -4.142,0 -7.5,3.358 -7.5,7.5 0,4.142 3.358,7.5 7.5,7.5 z"
   id="path5580"
   style="fill:#0065b3;fill-opacity:1;stroke:none;stroke-width:68.9927;stroke-dasharray:none;stroke-opacity:1" />
	<path
   d="m 215.5,280 h -16 c -4.142,0 -7.5,3.358 -7.5,7.5 0,4.142 3.358,7.5 7.5,7.5 h 16 c 4.142,0 7.5,-3.358 7.5,-7.5 0,-4.142 -3.358,-7.5 -7.5,-7.5 z"
   id="path5582"
   style="fill:#0065b3;fill-opacity:1;stroke:none;stroke-width:68.9927;stroke-dasharray:none;stroke-opacity:1" />
	<path
   d="m 199.5,231 h 16 c 4.142,0 7.5,-3.358 7.5,-7.5 0,-4.142 -3.358,-7.5 -7.5,-7.5 h -16 c -4.142,0 -7.5,3.358 -7.5,7.5 0,4.142 3.358,7.5 7.5,7.5 z"
   id="path5584"
   style="fill:#0065b3;fill-opacity:1;stroke:none;stroke-width:68.9927;stroke-dasharray:none;stroke-opacity:1" />
	<path
   d="m 247.5,231 h 32 c 4.142,0 7.5,-3.358 7.5,-7.5 0,-4.142 -3.358,-7.5 -7.5,-7.5 h -32 c -4.142,0 -7.5,3.358 -7.5,7.5 0,4.142 3.358,7.5 7.5,7.5 z"
   id="path5586"
   style="fill:#0065b3;fill-opacity:1;stroke:none;stroke-width:68.9927;stroke-dasharray:none;stroke-opacity:1" />
	<path
   d="m 303.5,280 h -56 c -4.142,0 -7.5,3.358 -7.5,7.5 0,4.142 3.358,7.5 7.5,7.5 h 56 c 4.142,0 7.5,-3.358 7.5,-7.5 0,-4.142 -3.358,-7.5 -7.5,-7.5 z"
   id="path5588"
   style="fill:#0065b3;fill-opacity:1;stroke:none;stroke-width:68.9927;stroke-dasharray:none;stroke-opacity:1" />
	<path
   d="m 263.5,344 h -16 c -4.142,0 -7.5,3.358 -7.5,7.5 0,4.142 3.358,7.5 7.5,7.5 h 16 c 4.142,0 7.5,-3.358 7.5,-7.5 0,-4.142 -3.358,-7.5 -7.5,-7.5 z"
   id="path5590"
   style="fill:#0065b3;fill-opacity:1;stroke:none;stroke-width:68.9927;stroke-dasharray:none;stroke-opacity:1" />
	<path
   d="m 247.5,423 h 32 c 4.142,0 7.5,-3.358 7.5,-7.5 0,-4.142 -3.358,-7.5 -7.5,-7.5 h -32 c -4.142,0 -7.5,3.358 -7.5,7.5 0,4.142 3.358,7.5 7.5,7.5 z"
   id="path5592"
   style="fill:#0065b3;fill-opacity:1;stroke:none;stroke-width:68.9927;stroke-dasharray:none;stroke-opacity:1" />
	<path
   d="M 471.5,56 H 39.5 C 17.72,56 0,73.72 0,95.5 v 320 C 0,437.28 17.72,455 39.5,455 h 432 c 21.78,0 39.5,-17.72 39.5,-39.5 V 95.5 C 511,73.72 493.28,56 471.5,56 Z M 175,376 v -49 h 161 v 49 z m 161,15 v 49 H 175 V 391 Z M 496,135 v 49 H 351 v -49 z m -160,64 v 49 H 175 V 199 Z M 160,248 H 15 v -49 h 145 z m 0,15 v 49 H 15 v -49 z m 15,0 h 161 v 49 H 175 Z m 176,0 h 145 v 49 H 351 Z m 0,-15 v -49 h 145 v 49 z M 336,184 H 15 V 135 H 336 Z M 15,327 h 145 v 49 H 15 Z m 336,0 h 145 v 49 H 351 Z M 39.5,71 h 432 C 485.009,71 496,81.991 496,95.5 V 120 H 15 V 95.5 C 15,81.991 25.991,71 39.5,71 Z M 15,415.5 V 391 h 145 v 49 H 39.5 C 25.991,440 15,429.009 15,415.5 Z M 471.5,440 H 351 v -49 h 145 v 24.5 c 0,13.509 -10.991,24.5 -24.5,24.5 z"
   id="path5594"
   style="fill:#0065b3;fill-opacity:1;stroke:none;stroke-width:68.9927;stroke-dasharray:none;stroke-opacity:1" />
</g></g></g><g
           id="g5658"
           transform="translate(3.4375457,-4.0871609)"><rect
             style="fill:#ffffff;fill-opacity:1;stroke:none;stroke-width:0;stroke-linecap:round;stroke-linejoin:round;stroke-miterlimit:0;stroke-dasharray:none;stroke-opacity:1;stop-color:#000000"
             id="rect5602"
             width="15.069544"
             height="11.942732"
             x="97.46151"
             y="61.43169"
             rx="1.3563002"
             ry="1.3563002" /><g
             style="fill:#0065b3;fill-opacity:1;stroke:none;stroke-width:68.9927;stroke-dasharray:none;stroke-opacity:1"
             id="g5656"
             transform="matrix(0.02898857,0,0,0.02898857,97.589702,59.996477)"><g
               id="g5654"
               style="fill:#0065b3;fill-opacity:1;stroke:none;stroke-width:68.9927;stroke-dasharray:none;stroke-opacity:1">
	<path
   d="m 39.5,231 h 24 c 4.142,0 7.5,-3.358 7.5,-7.5 0,-4.142 -3.358,-7.5 -7.5,-7.5 h -24 c -4.142,0 -7.5,3.358 -7.5,7.5 0,4.142 3.358,7.5 7.5,7.5 z"
   id="path5604"
   style="fill:#0065b3;fill-opacity:1;stroke:none;stroke-width:68.9927;stroke-dasharray:none;stroke-opacity:1" />
	<path
   d="m 39.5,167 h 168 c 4.142,0 7.5,-3.358 7.5,-7.5 0,-4.142 -3.358,-7.5 -7.5,-7.5 h -168 c -4.142,0 -7.5,3.358 -7.5,7.5 0,4.142 3.358,7.5 7.5,7.5 z"
   id="path5606"
   style="fill:#0065b3;fill-opacity:1;stroke:none;stroke-width:68.9927;stroke-dasharray:none;stroke-opacity:1" />
	<path
   d="m 239.5,167 h 32 c 4.142,0 7.5,-3.358 7.5,-7.5 0,-4.142 -3.358,-7.5 -7.5,-7.5 h -32 c -4.142,0 -7.5,3.358 -7.5,7.5 0,4.142 3.358,7.5 7.5,7.5 z"
   id="path5608"
   style="fill:#0065b3;fill-opacity:1;stroke:none;stroke-width:68.9927;stroke-dasharray:none;stroke-opacity:1" />
	<path
   d="m 375.5,167 h 96 c 4.142,0 7.5,-3.358 7.5,-7.5 0,-4.142 -3.358,-7.5 -7.5,-7.5 h -96 c -4.142,0 -7.5,3.358 -7.5,7.5 0,4.142 3.358,7.5 7.5,7.5 z"
   id="path5610"
   style="fill:#0065b3;fill-opacity:1;stroke:none;stroke-width:68.9927;stroke-dasharray:none;stroke-opacity:1" />
	<path
   d="m 375.5,216 c -1.97,0 -3.91,0.8 -5.3,2.2 -1.4,1.39 -2.2,3.33 -2.2,5.3 0,1.97 0.8,3.91 2.2,5.3 1.39,1.4 3.33,2.2 5.3,2.2 1.97,0 3.91,-0.8 5.3,-2.2 1.4,-1.39 2.2,-3.33 2.2,-5.3 0,-1.97 -0.8,-3.91 -2.2,-5.3 -1.39,-1.4 -3.33,-2.2 -5.3,-2.2 z"
   id="path5612"
   style="fill:#0065b3;fill-opacity:1;stroke:none;stroke-width:68.9927;stroke-dasharray:none;stroke-opacity:1" />
	<path
   d="m 380.8,282.2 c -1.39,-1.4 -3.33,-2.2 -5.3,-2.2 -1.97,0 -3.91,0.8 -5.3,2.2 -1.4,1.39 -2.2,3.33 -2.2,5.3 0,1.97 0.8,3.91 2.2,5.3 1.39,1.4 3.33,2.2 5.3,2.2 1.97,0 3.91,-0.8 5.3,-2.2 1.4,-1.39 2.2,-3.33 2.2,-5.3 0,-1.97 -0.8,-3.91 -2.2,-5.3 z"
   id="path5614"
   style="fill:#0065b3;fill-opacity:1;stroke:none;stroke-width:68.9927;stroke-dasharray:none;stroke-opacity:1" />
	<path
   d="m 375.5,344 c -1.97,0 -3.91,0.8 -5.3,2.2 -1.4,1.39 -2.2,3.33 -2.2,5.3 0,1.97 0.8,3.91 2.2,5.3 1.39,1.4 3.33,2.2 5.3,2.2 1.97,0 3.91,-0.8 5.3,-2.2 1.4,-1.39 2.2,-3.33 2.2,-5.3 0,-1.97 -0.8,-3.91 -2.2,-5.3 -1.39,-1.4 -3.33,-2.2 -5.3,-2.2 z"
   id="path5616"
   style="fill:#0065b3;fill-opacity:1;stroke:none;stroke-width:68.9927;stroke-dasharray:none;stroke-opacity:1" />
	<path
   d="m 407.5,344 c -1.98,0 -3.91,0.8 -5.3,2.2 -1.4,1.39 -2.2,3.33 -2.2,5.3 0,1.97 0.8,3.91 2.2,5.3 1.39,1.4 3.32,2.2 5.3,2.2 1.97,0 3.91,-0.8 5.3,-2.2 1.4,-1.39 2.2,-3.33 2.2,-5.3 0,-1.97 -0.8,-3.91 -2.2,-5.3 -1.39,-1.4 -3.32,-2.2 -5.3,-2.2 z"
   id="path5618"
   style="fill:#0065b3;fill-opacity:1;stroke:none;stroke-width:68.9927;stroke-dasharray:none;stroke-opacity:1" />
	<path
   d="m 375.5,408 c -1.97,0 -3.91,0.8 -5.3,2.2 -1.4,1.39 -2.2,3.33 -2.2,5.3 0,1.97 0.8,3.91 2.2,5.3 1.39,1.4 3.33,2.2 5.3,2.2 1.97,0 3.91,-0.8 5.3,-2.2 1.4,-1.39 2.2,-3.33 2.2,-5.3 0,-1.97 -0.8,-3.91 -2.2,-5.3 -1.39,-1.4 -3.33,-2.2 -5.3,-2.2 z"
   id="path5620"
   style="fill:#0065b3;fill-opacity:1;stroke:none;stroke-width:68.9927;stroke-dasharray:none;stroke-opacity:1" />
	<path
   d="m 407.5,408 c -1.97,0 -3.91,0.8 -5.3,2.2 -1.4,1.39 -2.2,3.33 -2.2,5.3 0,1.97 0.8,3.91 2.2,5.3 1.39,1.4 3.33,2.2 5.3,2.2 1.97,0 3.91,-0.8 5.3,-2.2 1.4,-1.39 2.2,-3.33 2.2,-5.3 0,-1.97 -0.8,-3.91 -2.2,-5.3 -1.39,-1.4 -3.33,-2.2 -5.3,-2.2 z"
   id="path5622"
   style="fill:#0065b3;fill-opacity:1;stroke:none;stroke-width:68.9927;stroke-dasharray:none;stroke-opacity:1" />
	<path
   d="m 444.8,346.2 c -1.39,-1.4 -3.33,-2.2 -5.3,-2.2 -1.97,0 -3.91,0.8 -5.3,2.2 -1.4,1.39 -2.2,3.32 -2.2,5.3 0,1.98 0.8,3.91 2.2,5.3 1.39,1.4 3.33,2.2 5.3,2.2 1.97,0 3.91,-0.8 5.3,-2.2 1.4,-1.39 2.2,-3.33 2.2,-5.3 0,-1.97 -0.8,-3.91 -2.2,-5.3 z"
   id="path5624"
   style="fill:#0065b3;fill-opacity:1;stroke:none;stroke-width:68.9927;stroke-dasharray:none;stroke-opacity:1" />
	<path
   d="m 412.8,218.2 c -1.39,-1.4 -3.32,-2.2 -5.3,-2.2 -1.98,0 -3.91,0.8 -5.3,2.2 -1.4,1.39 -2.2,3.33 -2.2,5.3 0,1.97 0.8,3.91 2.2,5.3 1.39,1.4 3.33,2.2 5.3,2.2 1.97,0 3.91,-0.8 5.3,-2.2 1.4,-1.39 2.2,-3.33 2.2,-5.3 0,-1.97 -0.8,-3.91 -2.2,-5.3 z"
   id="path5626"
   style="fill:#0065b3;fill-opacity:1;stroke:none;stroke-width:68.9927;stroke-dasharray:none;stroke-opacity:1" />
	<path
   d="m 63.5,408 h -24 c -4.142,0 -7.5,3.358 -7.5,7.5 0,4.142 3.358,7.5 7.5,7.5 h 24 c 4.142,0 7.5,-3.358 7.5,-7.5 0,-4.142 -3.358,-7.5 -7.5,-7.5 z"
   id="path5628"
   style="fill:#0065b3;fill-opacity:1;stroke:none;stroke-width:68.9927;stroke-dasharray:none;stroke-opacity:1" />
	<path
   d="m 143.5,103 h 224 c 4.142,0 7.5,-3.358 7.5,-7.5 0,-4.142 -3.358,-7.5 -7.5,-7.5 h -224 c -4.142,0 -7.5,3.358 -7.5,7.5 0,4.142 3.358,7.5 7.5,7.5 z"
   id="path5630"
   style="fill:#0065b3;fill-opacity:1;stroke:none;stroke-width:68.9927;stroke-dasharray:none;stroke-opacity:1" />
	<path
   d="m 39.5,295 h 24 c 4.142,0 7.5,-3.358 7.5,-7.5 0,-4.142 -3.358,-7.5 -7.5,-7.5 h -24 c -4.142,0 -7.5,3.358 -7.5,7.5 0,4.142 3.358,7.5 7.5,7.5 z"
   id="path5632"
   style="fill:#0065b3;fill-opacity:1;stroke:none;stroke-width:68.9927;stroke-dasharray:none;stroke-opacity:1" />
	<path
   d="m 63.5,344 h -24 c -4.142,0 -7.5,3.358 -7.5,7.5 0,4.142 3.358,7.5 7.5,7.5 h 24 c 4.142,0 7.5,-3.358 7.5,-7.5 0,-4.142 -3.358,-7.5 -7.5,-7.5 z"
   id="path5634"
   style="fill:#0065b3;fill-opacity:1;stroke:none;stroke-width:68.9927;stroke-dasharray:none;stroke-opacity:1" />
	<path
   d="m 215.5,344 h -16 c -4.142,0 -7.5,3.358 -7.5,7.5 0,4.142 3.358,7.5 7.5,7.5 h 16 c 4.142,0 7.5,-3.358 7.5,-7.5 0,-4.142 -3.358,-7.5 -7.5,-7.5 z"
   id="path5636"
   style="fill:#0065b3;fill-opacity:1;stroke:none;stroke-width:68.9927;stroke-dasharray:none;stroke-opacity:1" />
	<path
   d="m 199.5,423 h 16 c 4.142,0 7.5,-3.358 7.5,-7.5 0,-4.142 -3.358,-7.5 -7.5,-7.5 h -16 c -4.142,0 -7.5,3.358 -7.5,7.5 0,4.142 3.358,7.5 7.5,7.5 z"
   id="path5638"
   style="fill:#0065b3;fill-opacity:1;stroke:none;stroke-width:68.9927;stroke-dasharray:none;stroke-opacity:1" />
	<path
   d="m 215.5,280 h -16 c -4.142,0 -7.5,3.358 -7.5,7.5 0,4.142 3.358,7.5 7.5,7.5 h 16 c 4.142,0 7.5,-3.358 7.5,-7.5 0,-4.142 -3.358,-7.5 -7.5,-7.5 z"
   id="path5640"
   style="fill:#0065b3;fill-opacity:1;stroke:none;stroke-width:68.9927;stroke-dasharray:none;stroke-opacity:1" />
	<path
   d="m 199.5,231 h 16 c 4.142,0 7.5,-3.358 7.5,-7.5 0,-4.142 -3.358,-7.5 -7.5,-7.5 h -16 c -4.142,0 -7.5,3.358 -7.5,7.5 0,4.142 3.358,7.5 7.5,7.5 z"
   id="path5642"
   style="fill:#0065b3;fill-opacity:1;stroke:none;stroke-width:68.9927;stroke-dasharray:none;stroke-opacity:1" />
	<path
   d="m 247.5,231 h 32 c 4.142,0 7.5,-3.358 7.5,-7.5 0,-4.142 -3.358,-7.5 -7.5,-7.5 h -32 c -4.142,0 -7.5,3.358 -7.5,7.5 0,4.142 3.358,7.5 7.5,7.5 z"
   id="path5644"
   style="fill:#0065b3;fill-opacity:1;stroke:none;stroke-width:68.9927;stroke-dasharray:none;stroke-opacity:1" />
	<path
   d="m 303.5,280 h -56 c -4.142,0 -7.5,3.358 -7.5,7.5 0,4.142 3.358,7.5 7.5,7.5 h 56 c 4.142,0 7.5,-3.358 7.5,-7.5 0,-4.142 -3.358,-7.5 -7.5,-7.5 z"
   id="path5646"
   style="fill:#0065b3;fill-opacity:1;stroke:none;stroke-width:68.9927;stroke-dasharray:none;stroke-opacity:1" />
	<path
   d="m 263.5,344 h -16 c -4.142,0 -7.5,3.358 -7.5,7.5 0,4.142 3.358,7.5 7.5,7.5 h 16 c 4.142,0 7.5,-3.358 7.5,-7.5 0,-4.142 -3.358,-7.5 -7.5,-7.5 z"
   id="path5648"
   style="fill:#0065b3;fill-opacity:1;stroke:none;stroke-width:68.9927;stroke-dasharray:none;stroke-opacity:1" />
	<path
   d="m 247.5,423 h 32 c 4.142,0 7.5,-3.358 7.5,-7.5 0,-4.142 -3.358,-7.5 -7.5,-7.5 h -32 c -4.142,0 -7.5,3.358 -7.5,7.5 0,4.142 3.358,7.5 7.5,7.5 z"
   id="path5650"
   style="fill:#0065b3;fill-opacity:1;stroke:none;stroke-width:68.9927;stroke-dasharray:none;stroke-opacity:1" />
	<path
   d="M 471.5,56 H 39.5 C 17.72,56 0,73.72 0,95.5 v 320 C 0,437.28 17.72,455 39.5,455 h 432 c 21.78,0 39.5,-17.72 39.5,-39.5 V 95.5 C 511,73.72 493.28,56 471.5,56 Z M 175,376 v -49 h 161 v 49 z m 161,15 v 49 H 175 V 391 Z M 496,135 v 49 H 351 v -49 z m -160,64 v 49 H 175 V 199 Z M 160,248 H 15 v -49 h 145 z m 0,15 v 49 H 15 v -49 z m 15,0 h 161 v 49 H 175 Z m 176,0 h 145 v 49 H 351 Z m 0,-15 v -49 h 145 v 49 z M 336,184 H 15 V 135 H 336 Z M 15,327 h 145 v 49 H 15 Z m 336,0 h 145 v 49 H 351 Z M 39.5,71 h 432 C 485.009,71 496,81.991 496,95.5 V 120 H 15 V 95.5 C 15,81.991 25.991,71 39.5,71 Z M 15,415.5 V 391 h 145 v 49 H 39.5 C 25.991,440 15,429.009 15,415.5 Z M 471.5,440 H 351 v -49 h 145 v 24.5 c 0,13.509 -10.991,24.5 -24.5,24.5 z"
   id="path5652"
   style="fill:#0065b3;fill-opacity:1;stroke:none;stroke-width:68.9927;stroke-dasharray:none;stroke-opacity:1" />
</g></g></g></g></g><text
       xml:space="preserve"
       style="font-size:3.52778px;line-height:1.25;font-family:sans-serif;display:inline;stroke-width:0.264583"
       x="103.52502"
       y="60.830681"
       id="text1595"><tspan
         sodipodi:role="line"
         id="tspan1593"
         style="font-size:3.52778px;stroke-width:0.264583"
         x="103.52502"
         y="60.830681">Archivation</tspan></text><g
       id="g3393"
       transform="translate(-34.700116,-48.102548)"
       style="display:inline"><rect
         style="font-variation-settings:normal;display:inline;vector-effect:none;fill:#a3d4ff;fill-opacity:1;stroke:#0065b3;stroke-width:0.499999;stroke-linecap:butt;stroke-linejoin:miter;stroke-miterlimit:4;stroke-dasharray:none;stroke-dashoffset:0;stroke-opacity:1;-inkscape-stroke:none;stop-color:#000000"
         id="rect3319"
         width="20.951138"
         height="9.3378019"
         x="63.725941"
         y="54.942013" /><text
         xml:space="preserve"
         style="font-size:3.52778px;line-height:1.25;font-family:sans-serif;text-align:center;text-anchor:middle;stroke-width:0.264583"
         x="74.224854"
         y="58.436176"
         id="text3325"><tspan
           sodipodi:role="line"
           style="font-size:3.52778px;text-align:center;text-anchor:middle;stroke-width:0.264583"
           x="74.224854"
           y="58.436176"
           id="tspan3323">Create</tspan><tspan
           sodipodi:role="line"
           style="font-size:3.52778px;text-align:center;text-anchor:middle;stroke-width:0.264583"
           x="74.224854"
           y="62.845901"
           id="tspan3335">Snapshots</tspan></text></g><g
       id="g5155"
       transform="translate(4.7940007,-52.542047)"
       style="display:inline"><text
         xml:space="preserve"
         style="font-size:3.52778px;line-height:1.25;font-family:sans-serif;display:inline;stroke-width:0.264583"
         x="62.469498"
         y="71.705254"
         id="text3634"><tspan
           sodipodi:role="line"
           style="font-size:3.52778px;stroke-width:0.264583"
           x="62.469498"
           y="71.705254"
           id="tspan3632">Profile Snapshots</tspan></text><g
         id="g3752"
         transform="translate(-31.629642,-0.506533)"><g
           id="g3692"
           transform="translate(5.3623645,-5.9349314)"><rect
             style="fill:#ffffff;fill-opacity:1;stroke:none;stroke-width:0;stroke-linecap:round;stroke-linejoin:round;stroke-miterlimit:0;stroke-dasharray:none;stroke-opacity:1;stop-color:#000000"
             id="rect3636"
             width="15.069544"
             height="11.942732"
             x="97.46151"
             y="61.43169"
             rx="1.3563002"
             ry="1.3563002" /><g
             style="fill:#0065b3;fill-opacity:1;stroke:none;stroke-width:68.9927;stroke-dasharray:none;stroke-opacity:1"
             id="g3690"
             transform="matrix(0.02898857,0,0,0.02898857,97.589702,59.996477)"><g
               id="g3688"
               style="fill:#0065b3;fill-opacity:1;stroke:none;stroke-width:68.9927;stroke-dasharray:none;stroke-opacity:1">
	<path
   d="m 39.5,231 h 24 c 4.142,0 7.5,-3.358 7.5,-7.5 0,-4.142 -3.358,-7.5 -7.5,-7.5 h -24 c -4.142,0 -7.5,3.358 -7.5,7.5 0,4.142 3.358,7.5 7.5,7.5 z"
   id="path3638"
   style="fill:#0065b3;fill-opacity:1;stroke:none;stroke-width:68.9927;stroke-dasharray:none;stroke-opacity:1" />
	<path
   d="m 39.5,167 h 168 c 4.142,0 7.5,-3.358 7.5,-7.5 0,-4.142 -3.358,-7.5 -7.5,-7.5 h -168 c -4.142,0 -7.5,3.358 -7.5,7.5 0,4.142 3.358,7.5 7.5,7.5 z"
   id="path3640"
   style="fill:#0065b3;fill-opacity:1;stroke:none;stroke-width:68.9927;stroke-dasharray:none;stroke-opacity:1" />
	<path
   d="m 239.5,167 h 32 c 4.142,0 7.5,-3.358 7.5,-7.5 0,-4.142 -3.358,-7.5 -7.5,-7.5 h -32 c -4.142,0 -7.5,3.358 -7.5,7.5 0,4.142 3.358,7.5 7.5,7.5 z"
   id="path3642"
   style="fill:#0065b3;fill-opacity:1;stroke:none;stroke-width:68.9927;stroke-dasharray:none;stroke-opacity:1" />
	<path
   d="m 375.5,167 h 96 c 4.142,0 7.5,-3.358 7.5,-7.5 0,-4.142 -3.358,-7.5 -7.5,-7.5 h -96 c -4.142,0 -7.5,3.358 -7.5,7.5 0,4.142 3.358,7.5 7.5,7.5 z"
   id="path3644"
   style="fill:#0065b3;fill-opacity:1;stroke:none;stroke-width:68.9927;stroke-dasharray:none;stroke-opacity:1" />
	<path
   d="m 375.5,216 c -1.97,0 -3.91,0.8 -5.3,2.2 -1.4,1.39 -2.2,3.33 -2.2,5.3 0,1.97 0.8,3.91 2.2,5.3 1.39,1.4 3.33,2.2 5.3,2.2 1.97,0 3.91,-0.8 5.3,-2.2 1.4,-1.39 2.2,-3.33 2.2,-5.3 0,-1.97 -0.8,-3.91 -2.2,-5.3 -1.39,-1.4 -3.33,-2.2 -5.3,-2.2 z"
   id="path3646"
   style="fill:#0065b3;fill-opacity:1;stroke:none;stroke-width:68.9927;stroke-dasharray:none;stroke-opacity:1" />
	<path
   d="m 380.8,282.2 c -1.39,-1.4 -3.33,-2.2 -5.3,-2.2 -1.97,0 -3.91,0.8 -5.3,2.2 -1.4,1.39 -2.2,3.33 -2.2,5.3 0,1.97 0.8,3.91 2.2,5.3 1.39,1.4 3.33,2.2 5.3,2.2 1.97,0 3.91,-0.8 5.3,-2.2 1.4,-1.39 2.2,-3.33 2.2,-5.3 0,-1.97 -0.8,-3.91 -2.2,-5.3 z"
   id="path3648"
   style="fill:#0065b3;fill-opacity:1;stroke:none;stroke-width:68.9927;stroke-dasharray:none;stroke-opacity:1" />
	<path
   d="m 375.5,344 c -1.97,0 -3.91,0.8 -5.3,2.2 -1.4,1.39 -2.2,3.33 -2.2,5.3 0,1.97 0.8,3.91 2.2,5.3 1.39,1.4 3.33,2.2 5.3,2.2 1.97,0 3.91,-0.8 5.3,-2.2 1.4,-1.39 2.2,-3.33 2.2,-5.3 0,-1.97 -0.8,-3.91 -2.2,-5.3 -1.39,-1.4 -3.33,-2.2 -5.3,-2.2 z"
   id="path3650"
   style="fill:#0065b3;fill-opacity:1;stroke:none;stroke-width:68.9927;stroke-dasharray:none;stroke-opacity:1" />
	<path
   d="m 407.5,344 c -1.98,0 -3.91,0.8 -5.3,2.2 -1.4,1.39 -2.2,3.33 -2.2,5.3 0,1.97 0.8,3.91 2.2,5.3 1.39,1.4 3.32,2.2 5.3,2.2 1.97,0 3.91,-0.8 5.3,-2.2 1.4,-1.39 2.2,-3.33 2.2,-5.3 0,-1.97 -0.8,-3.91 -2.2,-5.3 -1.39,-1.4 -3.32,-2.2 -5.3,-2.2 z"
   id="path3652"
   style="fill:#0065b3;fill-opacity:1;stroke:none;stroke-width:68.9927;stroke-dasharray:none;stroke-opacity:1" />
	<path
   d="m 375.5,408 c -1.97,0 -3.91,0.8 -5.3,2.2 -1.4,1.39 -2.2,3.33 -2.2,5.3 0,1.97 0.8,3.91 2.2,5.3 1.39,1.4 3.33,2.2 5.3,2.2 1.97,0 3.91,-0.8 5.3,-2.2 1.4,-1.39 2.2,-3.33 2.2,-5.3 0,-1.97 -0.8,-3.91 -2.2,-5.3 -1.39,-1.4 -3.33,-2.2 -5.3,-2.2 z"
   id="path3654"
   style="fill:#0065b3;fill-opacity:1;stroke:none;stroke-width:68.9927;stroke-dasharray:none;stroke-opacity:1" />
	<path
   d="m 407.5,408 c -1.97,0 -3.91,0.8 -5.3,2.2 -1.4,1.39 -2.2,3.33 -2.2,5.3 0,1.97 0.8,3.91 2.2,5.3 1.39,1.4 3.33,2.2 5.3,2.2 1.97,0 3.91,-0.8 5.3,-2.2 1.4,-1.39 2.2,-3.33 2.2,-5.3 0,-1.97 -0.8,-3.91 -2.2,-5.3 -1.39,-1.4 -3.33,-2.2 -5.3,-2.2 z"
   id="path3656"
   style="fill:#0065b3;fill-opacity:1;stroke:none;stroke-width:68.9927;stroke-dasharray:none;stroke-opacity:1" />
	<path
   d="m 444.8,346.2 c -1.39,-1.4 -3.33,-2.2 -5.3,-2.2 -1.97,0 -3.91,0.8 -5.3,2.2 -1.4,1.39 -2.2,3.32 -2.2,5.3 0,1.98 0.8,3.91 2.2,5.3 1.39,1.4 3.33,2.2 5.3,2.2 1.97,0 3.91,-0.8 5.3,-2.2 1.4,-1.39 2.2,-3.33 2.2,-5.3 0,-1.97 -0.8,-3.91 -2.2,-5.3 z"
   id="path3658"
   style="fill:#0065b3;fill-opacity:1;stroke:none;stroke-width:68.9927;stroke-dasharray:none;stroke-opacity:1" />
	<path
   d="m 412.8,218.2 c -1.39,-1.4 -3.32,-2.2 -5.3,-2.2 -1.98,0 -3.91,0.8 -5.3,2.2 -1.4,1.39 -2.2,3.33 -2.2,5.3 0,1.97 0.8,3.91 2.2,5.3 1.39,1.4 3.33,2.2 5.3,2.2 1.97,0 3.91,-0.8 5.3,-2.2 1.4,-1.39 2.2,-3.33 2.2,-5.3 0,-1.97 -0.8,-3.91 -2.2,-5.3 z"
   id="path3660"
   style="fill:#0065b3;fill-opacity:1;stroke:none;stroke-width:68.9927;stroke-dasharray:none;stroke-opacity:1" />
	<path
   d="m 63.5,408 h -24 c -4.142,0 -7.5,3.358 -7.5,7.5 0,4.142 3.358,7.5 7.5,7.5 h 24 c 4.142,0 7.5,-3.358 7.5,-7.5 0,-4.142 -3.358,-7.5 -7.5,-7.5 z"
   id="path3662"
   style="fill:#0065b3;fill-opacity:1;stroke:none;stroke-width:68.9927;stroke-dasharray:none;stroke-opacity:1" />
	<path
   d="m 143.5,103 h 224 c 4.142,0 7.5,-3.358 7.5,-7.5 0,-4.142 -3.358,-7.5 -7.5,-7.5 h -224 c -4.142,0 -7.5,3.358 -7.5,7.5 0,4.142 3.358,7.5 7.5,7.5 z"
   id="path3664"
   style="fill:#0065b3;fill-opacity:1;stroke:none;stroke-width:68.9927;stroke-dasharray:none;stroke-opacity:1" />
	<path
   d="m 39.5,295 h 24 c 4.142,0 7.5,-3.358 7.5,-7.5 0,-4.142 -3.358,-7.5 -7.5,-7.5 h -24 c -4.142,0 -7.5,3.358 -7.5,7.5 0,4.142 3.358,7.5 7.5,7.5 z"
   id="path3666"
   style="fill:#0065b3;fill-opacity:1;stroke:none;stroke-width:68.9927;stroke-dasharray:none;stroke-opacity:1" />
	<path
   d="m 63.5,344 h -24 c -4.142,0 -7.5,3.358 -7.5,7.5 0,4.142 3.358,7.5 7.5,7.5 h 24 c 4.142,0 7.5,-3.358 7.5,-7.5 0,-4.142 -3.358,-7.5 -7.5,-7.5 z"
   id="path3668"
   style="fill:#0065b3;fill-opacity:1;stroke:none;stroke-width:68.9927;stroke-dasharray:none;stroke-opacity:1" />
	<path
   d="m 215.5,344 h -16 c -4.142,0 -7.5,3.358 -7.5,7.5 0,4.142 3.358,7.5 7.5,7.5 h 16 c 4.142,0 7.5,-3.358 7.5,-7.5 0,-4.142 -3.358,-7.5 -7.5,-7.5 z"
   id="path3670"
   style="fill:#0065b3;fill-opacity:1;stroke:none;stroke-width:68.9927;stroke-dasharray:none;stroke-opacity:1" />
	<path
   d="m 199.5,423 h 16 c 4.142,0 7.5,-3.358 7.5,-7.5 0,-4.142 -3.358,-7.5 -7.5,-7.5 h -16 c -4.142,0 -7.5,3.358 -7.5,7.5 0,4.142 3.358,7.5 7.5,7.5 z"
   id="path3672"
   style="fill:#0065b3;fill-opacity:1;stroke:none;stroke-width:68.9927;stroke-dasharray:none;stroke-opacity:1" />
	<path
   d="m 215.5,280 h -16 c -4.142,0 -7.5,3.358 -7.5,7.5 0,4.142 3.358,7.5 7.5,7.5 h 16 c 4.142,0 7.5,-3.358 7.5,-7.5 0,-4.142 -3.358,-7.5 -7.5,-7.5 z"
   id="path3674"
   style="fill:#0065b3;fill-opacity:1;stroke:none;stroke-width:68.9927;stroke-dasharray:none;stroke-opacity:1" />
	<path
   d="m 199.5,231 h 16 c 4.142,0 7.5,-3.358 7.5,-7.5 0,-4.142 -3.358,-7.5 -7.5,-7.5 h -16 c -4.142,0 -7.5,3.358 -7.5,7.5 0,4.142 3.358,7.5 7.5,7.5 z"
   id="path3676"
   style="fill:#0065b3;fill-opacity:1;stroke:none;stroke-width:68.9927;stroke-dasharray:none;stroke-opacity:1" />
	<path
   d="m 247.5,231 h 32 c 4.142,0 7.5,-3.358 7.5,-7.5 0,-4.142 -3.358,-7.5 -7.5,-7.5 h -32 c -4.142,0 -7.5,3.358 -7.5,7.5 0,4.142 3.358,7.5 7.5,7.5 z"
   id="path3678"
   style="fill:#0065b3;fill-opacity:1;stroke:none;stroke-width:68.9927;stroke-dasharray:none;stroke-opacity:1" />
	<path
   d="m 303.5,280 h -56 c -4.142,0 -7.5,3.358 -7.5,7.5 0,4.142 3.358,7.5 7.5,7.5 h 56 c 4.142,0 7.5,-3.358 7.5,-7.5 0,-4.142 -3.358,-7.5 -7.5,-7.5 z"
   id="path3680"
   style="fill:#0065b3;fill-opacity:1;stroke:none;stroke-width:68.9927;stroke-dasharray:none;stroke-opacity:1" />
	<path
   d="m 263.5,344 h -16 c -4.142,0 -7.5,3.358 -7.5,7.5 0,4.142 3.358,7.5 7.5,7.5 h 16 c 4.142,0 7.5,-3.358 7.5,-7.5 0,-4.142 -3.358,-7.5 -7.5,-7.5 z"
   id="path3682"
   style="fill:#0065b3;fill-opacity:1;stroke:none;stroke-width:68.9927;stroke-dasharray:none;stroke-opacity:1" />
	<path
   d="m 247.5,423 h 32 c 4.142,0 7.5,-3.358 7.5,-7.5 0,-4.142 -3.358,-7.5 -7.5,-7.5 h -32 c -4.142,0 -7.5,3.358 -7.5,7.5 0,4.142 3.358,7.5 7.5,7.5 z"
   id="path3684"
   style="fill:#0065b3;fill-opacity:1;stroke:none;stroke-width:68.9927;stroke-dasharray:none;stroke-opacity:1" />
	<path
   d="M 471.5,56 H 39.5 C 17.72,56 0,73.72 0,95.5 v 320 C 0,437.28 17.72,455 39.5,455 h 432 c 21.78,0 39.5,-17.72 39.5,-39.5 V 95.5 C 511,73.72 493.28,56 471.5,56 Z M 175,376 v -49 h 161 v 49 z m 161,15 v 49 H 175 V 391 Z M 496,135 v 49 H 351 v -49 z m -160,64 v 49 H 175 V 199 Z M 160,248 H 15 v -49 h 145 z m 0,15 v 49 H 15 v -49 z m 15,0 h 161 v 49 H 175 Z m 176,0 h 145 v 49 H 351 Z m 0,-15 v -49 h 145 v 49 z M 336,184 H 15 V 135 H 336 Z M 15,327 h 145 v 49 H 15 Z m 336,0 h 145 v 49 H 351 Z M 39.5,71 h 432 C 485.009,71 496,81.991 496,95.5 V 120 H 15 V 95.5 C 15,81.991 25.991,71 39.5,71 Z M 15,415.5 V 391 h 145 v 49 H 39.5 C 25.991,440 15,429.009 15,415.5 Z M 471.5,440 H 351 v -49 h 145 v 24.5 c 0,13.509 -10.991,24.5 -24.5,24.5 z"
   id="path3686"
   style="fill:#0065b3;fill-opacity:1;stroke:none;stroke-width:68.9927;stroke-dasharray:none;stroke-opacity:1" />
</g></g></g><g
           id="g3750"
           transform="translate(3.4375457,-4.0871609)"><rect
             style="fill:#ffffff;fill-opacity:1;stroke:none;stroke-width:0;stroke-linecap:round;stroke-linejoin:round;stroke-miterlimit:0;stroke-dasharray:none;stroke-opacity:1;stop-color:#000000"
             id="rect3694"
             width="15.069544"
             height="11.942732"
             x="97.46151"
             y="61.43169"
             rx="1.3563002"
             ry="1.3563002" /><g
             style="fill:#0065b3;fill-opacity:1;stroke:none;stroke-width:68.9927;stroke-dasharray:none;stroke-opacity:1"
             id="g3748"
             transform="matrix(0.02898857,0,0,0.02898857,97.589702,59.996477)"><g
               id="g3746"
               style="fill:#0065b3;fill-opacity:1;stroke:none;stroke-width:68.9927;stroke-dasharray:none;stroke-opacity:1">
	<path
   d="m 39.5,231 h 24 c 4.142,0 7.5,-3.358 7.5,-7.5 0,-4.142 -3.358,-7.5 -7.5,-7.5 h -24 c -4.142,0 -7.5,3.358 -7.5,7.5 0,4.142 3.358,7.5 7.5,7.5 z"
   id="path3696"
   style="fill:#0065b3;fill-opacity:1;stroke:none;stroke-width:68.9927;stroke-dasharray:none;stroke-opacity:1" />
	<path
   d="m 39.5,167 h 168 c 4.142,0 7.5,-3.358 7.5,-7.5 0,-4.142 -3.358,-7.5 -7.5,-7.5 h -168 c -4.142,0 -7.5,3.358 -7.5,7.5 0,4.142 3.358,7.5 7.5,7.5 z"
   id="path3698"
   style="fill:#0065b3;fill-opacity:1;stroke:none;stroke-width:68.9927;stroke-dasharray:none;stroke-opacity:1" />
	<path
   d="m 239.5,167 h 32 c 4.142,0 7.5,-3.358 7.5,-7.5 0,-4.142 -3.358,-7.5 -7.5,-7.5 h -32 c -4.142,0 -7.5,3.358 -7.5,7.5 0,4.142 3.358,7.5 7.5,7.5 z"
   id="path3700"
   style="fill:#0065b3;fill-opacity:1;stroke:none;stroke-width:68.9927;stroke-dasharray:none;stroke-opacity:1" />
	<path
   d="m 375.5,167 h 96 c 4.142,0 7.5,-3.358 7.5,-7.5 0,-4.142 -3.358,-7.5 -7.5,-7.5 h -96 c -4.142,0 -7.5,3.358 -7.5,7.5 0,4.142 3.358,7.5 7.5,7.5 z"
   id="path3702"
   style="fill:#0065b3;fill-opacity:1;stroke:none;stroke-width:68.9927;stroke-dasharray:none;stroke-opacity:1" />
	<path
   d="m 375.5,216 c -1.97,0 -3.91,0.8 -5.3,2.2 -1.4,1.39 -2.2,3.33 -2.2,5.3 0,1.97 0.8,3.91 2.2,5.3 1.39,1.4 3.33,2.2 5.3,2.2 1.97,0 3.91,-0.8 5.3,-2.2 1.4,-1.39 2.2,-3.33 2.2,-5.3 0,-1.97 -0.8,-3.91 -2.2,-5.3 -1.39,-1.4 -3.33,-2.2 -5.3,-2.2 z"
   id="path3704"
   style="fill:#0065b3;fill-opacity:1;stroke:none;stroke-width:68.9927;stroke-dasharray:none;stroke-opacity:1" />
	<path
   d="m 380.8,282.2 c -1.39,-1.4 -3.33,-2.2 -5.3,-2.2 -1.97,0 -3.91,0.8 -5.3,2.2 -1.4,1.39 -2.2,3.33 -2.2,5.3 0,1.97 0.8,3.91 2.2,5.3 1.39,1.4 3.33,2.2 5.3,2.2 1.97,0 3.91,-0.8 5.3,-2.2 1.4,-1.39 2.2,-3.33 2.2,-5.3 0,-1.97 -0.8,-3.91 -2.2,-5.3 z"
   id="path3706"
   style="fill:#0065b3;fill-opacity:1;stroke:none;stroke-width:68.9927;stroke-dasharray:none;stroke-opacity:1" />
	<path
   d="m 375.5,344 c -1.97,0 -3.91,0.8 -5.3,2.2 -1.4,1.39 -2.2,3.33 -2.2,5.3 0,1.97 0.8,3.91 2.2,5.3 1.39,1.4 3.33,2.2 5.3,2.2 1.97,0 3.91,-0.8 5.3,-2.2 1.4,-1.39 2.2,-3.33 2.2,-5.3 0,-1.97 -0.8,-3.91 -2.2,-5.3 -1.39,-1.4 -3.33,-2.2 -5.3,-2.2 z"
   id="path3708"
   style="fill:#0065b3;fill-opacity:1;stroke:none;stroke-width:68.9927;stroke-dasharray:none;stroke-opacity:1" />
	<path
   d="m 407.5,344 c -1.98,0 -3.91,0.8 -5.3,2.2 -1.4,1.39 -2.2,3.33 -2.2,5.3 0,1.97 0.8,3.91 2.2,5.3 1.39,1.4 3.32,2.2 5.3,2.2 1.97,0 3.91,-0.8 5.3,-2.2 1.4,-1.39 2.2,-3.33 2.2,-5.3 0,-1.97 -0.8,-3.91 -2.2,-5.3 -1.39,-1.4 -3.32,-2.2 -5.3,-2.2 z"
   id="path3710"
   style="fill:#0065b3;fill-opacity:1;stroke:none;stroke-width:68.9927;stroke-dasharray:none;stroke-opacity:1" />
	<path
   d="m 375.5,408 c -1.97,0 -3.91,0.8 -5.3,2.2 -1.4,1.39 -2.2,3.33 -2.2,5.3 0,1.97 0.8,3.91 2.2,5.3 1.39,1.4 3.33,2.2 5.3,2.2 1.97,0 3.91,-0.8 5.3,-2.2 1.4,-1.39 2.2,-3.33 2.2,-5.3 0,-1.97 -0.8,-3.91 -2.2,-5.3 -1.39,-1.4 -3.33,-2.2 -5.3,-2.2 z"
   id="path3712"
   style="fill:#0065b3;fill-opacity:1;stroke:none;stroke-width:68.9927;stroke-dasharray:none;stroke-opacity:1" />
	<path
   d="m 407.5,408 c -1.97,0 -3.91,0.8 -5.3,2.2 -1.4,1.39 -2.2,3.33 -2.2,5.3 0,1.97 0.8,3.91 2.2,5.3 1.39,1.4 3.33,2.2 5.3,2.2 1.97,0 3.91,-0.8 5.3,-2.2 1.4,-1.39 2.2,-3.33 2.2,-5.3 0,-1.97 -0.8,-3.91 -2.2,-5.3 -1.39,-1.4 -3.33,-2.2 -5.3,-2.2 z"
   id="path3714"
   style="fill:#0065b3;fill-opacity:1;stroke:none;stroke-width:68.9927;stroke-dasharray:none;stroke-opacity:1" />
	<path
   d="m 444.8,346.2 c -1.39,-1.4 -3.33,-2.2 -5.3,-2.2 -1.97,0 -3.91,0.8 -5.3,2.2 -1.4,1.39 -2.2,3.32 -2.2,5.3 0,1.98 0.8,3.91 2.2,5.3 1.39,1.4 3.33,2.2 5.3,2.2 1.97,0 3.91,-0.8 5.3,-2.2 1.4,-1.39 2.2,-3.33 2.2,-5.3 0,-1.97 -0.8,-3.91 -2.2,-5.3 z"
   id="path3716"
   style="fill:#0065b3;fill-opacity:1;stroke:none;stroke-width:68.9927;stroke-dasharray:none;stroke-opacity:1" />
	<path
   d="m 412.8,218.2 c -1.39,-1.4 -3.32,-2.2 -5.3,-2.2 -1.98,0 -3.91,0.8 -5.3,2.2 -1.4,1.39 -2.2,3.33 -2.2,5.3 0,1.97 0.8,3.91 2.2,5.3 1.39,1.4 3.33,2.2 5.3,2.2 1.97,0 3.91,-0.8 5.3,-2.2 1.4,-1.39 2.2,-3.33 2.2,-5.3 0,-1.97 -0.8,-3.91 -2.2,-5.3 z"
   id="path3718"
   style="fill:#0065b3;fill-opacity:1;stroke:none;stroke-width:68.9927;stroke-dasharray:none;stroke-opacity:1" />
	<path
   d="m 63.5,408 h -24 c -4.142,0 -7.5,3.358 -7.5,7.5 0,4.142 3.358,7.5 7.5,7.5 h 24 c 4.142,0 7.5,-3.358 7.5,-7.5 0,-4.142 -3.358,-7.5 -7.5,-7.5 z"
   id="path3720"
   style="fill:#0065b3;fill-opacity:1;stroke:none;stroke-width:68.9927;stroke-dasharray:none;stroke-opacity:1" />
	<path
   d="m 143.5,103 h 224 c 4.142,0 7.5,-3.358 7.5,-7.5 0,-4.142 -3.358,-7.5 -7.5,-7.5 h -224 c -4.142,0 -7.5,3.358 -7.5,7.5 0,4.142 3.358,7.5 7.5,7.5 z"
   id="path3722"
   style="fill:#0065b3;fill-opacity:1;stroke:none;stroke-width:68.9927;stroke-dasharray:none;stroke-opacity:1" />
	<path
   d="m 39.5,295 h 24 c 4.142,0 7.5,-3.358 7.5,-7.5 0,-4.142 -3.358,-7.5 -7.5,-7.5 h -24 c -4.142,0 -7.5,3.358 -7.5,7.5 0,4.142 3.358,7.5 7.5,7.5 z"
   id="path3724"
   style="fill:#0065b3;fill-opacity:1;stroke:none;stroke-width:68.9927;stroke-dasharray:none;stroke-opacity:1" />
	<path
   d="m 63.5,344 h -24 c -4.142,0 -7.5,3.358 -7.5,7.5 0,4.142 3.358,7.5 7.5,7.5 h 24 c 4.142,0 7.5,-3.358 7.5,-7.5 0,-4.142 -3.358,-7.5 -7.5,-7.5 z"
   id="path3726"
   style="fill:#0065b3;fill-opacity:1;stroke:none;stroke-width:68.9927;stroke-dasharray:none;stroke-opacity:1" />
	<path
   d="m 215.5,344 h -16 c -4.142,0 -7.5,3.358 -7.5,7.5 0,4.142 3.358,7.5 7.5,7.5 h 16 c 4.142,0 7.5,-3.358 7.5,-7.5 0,-4.142 -3.358,-7.5 -7.5,-7.5 z"
   id="path3728"
   style="fill:#0065b3;fill-opacity:1;stroke:none;stroke-width:68.9927;stroke-dasharray:none;stroke-opacity:1" />
	<path
   d="m 199.5,423 h 16 c 4.142,0 7.5,-3.358 7.5,-7.5 0,-4.142 -3.358,-7.5 -7.5,-7.5 h -16 c -4.142,0 -7.5,3.358 -7.5,7.5 0,4.142 3.358,7.5 7.5,7.5 z"
   id="path3730"
   style="fill:#0065b3;fill-opacity:1;stroke:none;stroke-width:68.9927;stroke-dasharray:none;stroke-opacity:1" />
	<path
   d="m 215.5,280 h -16 c -4.142,0 -7.5,3.358 -7.5,7.5 0,4.142 3.358,7.5 7.5,7.5 h 16 c 4.142,0 7.5,-3.358 7.5,-7.5 0,-4.142 -3.358,-7.5 -7.5,-7.5 z"
   id="path3732"
   style="fill:#0065b3;fill-opacity:1;stroke:none;stroke-width:68.9927;stroke-dasharray:none;stroke-opacity:1" />
	<path
   d="m 199.5,231 h 16 c 4.142,0 7.5,-3.358 7.5,-7.5 0,-4.142 -3.358,-7.5 -7.5,-7.5 h -16 c -4.142,0 -7.5,3.358 -7.5,7.5 0,4.142 3.358,7.5 7.5,7.5 z"
   id="path3734"
   style="fill:#0065b3;fill-opacity:1;stroke:none;stroke-width:68.9927;stroke-dasharray:none;stroke-opacity:1" />
	<path
   d="m 247.5,231 h 32 c 4.142,0 7.5,-3.358 7.5,-7.5 0,-4.142 -3.358,-7.5 -7.5,-7.5 h -32 c -4.142,0 -7.5,3.358 -7.5,7.5 0,4.142 3.358,7.5 7.5,7.5 z"
   id="path3736"
   style="fill:#0065b3;fill-opacity:1;stroke:none;stroke-width:68.9927;stroke-dasharray:none;stroke-opacity:1" />
	<path
   d="m 303.5,280 h -56 c -4.142,0 -7.5,3.358 -7.5,7.5 0,4.142 3.358,7.5 7.5,7.5 h 56 c 4.142,0 7.5,-3.358 7.5,-7.5 0,-4.142 -3.358,-7.5 -7.5,-7.5 z"
   id="path3738"
   style="fill:#0065b3;fill-opacity:1;stroke:none;stroke-width:68.9927;stroke-dasharray:none;stroke-opacity:1" />
	<path
   d="m 263.5,344 h -16 c -4.142,0 -7.5,3.358 -7.5,7.5 0,4.142 3.358,7.5 7.5,7.5 h 16 c 4.142,0 7.5,-3.358 7.5,-7.5 0,-4.142 -3.358,-7.5 -7.5,-7.5 z"
   id="path3740"
   style="fill:#0065b3;fill-opacity:1;stroke:none;stroke-width:68.9927;stroke-dasharray:none;stroke-opacity:1" />
	<path
   d="m 247.5,423 h 32 c 4.142,0 7.5,-3.358 7.5,-7.5 0,-4.142 -3.358,-7.5 -7.5,-7.5 h -32 c -4.142,0 -7.5,3.358 -7.5,7.5 0,4.142 3.358,7.5 7.5,7.5 z"
   id="path3742"
   style="fill:#0065b3;fill-opacity:1;stroke:none;stroke-width:68.9927;stroke-dasharray:none;stroke-opacity:1" />
	<path
   d="M 471.5,56 H 39.5 C 17.72,56 0,73.72 0,95.5 v 320 C 0,437.28 17.72,455 39.5,455 h 432 c 21.78,0 39.5,-17.72 39.5,-39.5 V 95.5 C 511,73.72 493.28,56 471.5,56 Z M 175,376 v -49 h 161 v 49 z m 161,15 v 49 H 175 V 391 Z M 496,135 v 49 H 351 v -49 z m -160,64 v 49 H 175 V 199 Z M 160,248 H 15 v -49 h 145 z m 0,15 v 49 H 15 v -49 z m 15,0 h 161 v 49 H 175 Z m 176,0 h 145 v 49 H 351 Z m 0,-15 v -49 h 145 v 49 z M 336,184 H 15 V 135 H 336 Z M 15,327 h 145 v 49 H 15 Z m 336,0 h 145 v 49 H 351 Z M 39.5,71 h 432 C 485.009,71 496,81.991 496,95.5 V 120 H 15 V 95.5 C 15,81.991 25.991,71 39.5,71 Z M 15,415.5 V 391 h 145 v 49 H 39.5 C 25.991,440 15,429.009 15,415.5 Z M 471.5,440 H 351 v -49 h 145 v 24.5 c 0,13.509 -10.991,24.5 -24.5,24.5 z"
   id="path3744"
   style="fill:#0065b3;fill-opacity:1;stroke:none;stroke-width:68.9927;stroke-dasharray:none;stroke-opacity:1" />
</g></g></g></g></g><path
       style="display:inline;fill:none;stroke:#000000;stroke-width:0.4;stroke-linecap:butt;stroke-linejoin:miter;stroke-dasharray:none;stroke-opacity:1;marker-end:url(#Arrow2Mend)"
       d="m 45.089721,24.268945 c 1.497023,-2.206958 2.355184,-3.525152 -0.04152,-7.340111"
       id="path5303"
       sodipodi:nodetypes="cc" /><path
       style="display:inline;fill:none;stroke:#000000;stroke-width:0.4;stroke-linecap:butt;stroke-linejoin:miter;stroke-dasharray:none;stroke-opacity:1;marker-end:url(#Arrow2Mend)"
       d="m 34.073812,16.445922 c -1.497023,2.206958 -2.355184,3.525152 0.04152,7.340111"
       id="path5305"
       sodipodi:nodetypes="cc" /><g
       id="g1403"
       transform="translate(-13.843416,-45.679755)"><g
         id="g6467"
         transform="translate(2.7579608,7.2448787)"><text
           xml:space="preserve"
           style="font-size:3.52778px;line-height:1.25;font-family:sans-serif;display:inline;stroke-width:0.264583"
           x="18.03083"
           y="56.558353"
           id="text1394"><tspan
             sodipodi:role="line"
             id="tspan1392"
             style="font-size:3.52778px;stroke-width:0.264583"
             x="18.03083"
             y="56.558353">Scheduler</tspan></text><g
           id="g403"
           transform="matrix(0.01529247,0,0,0.01529247,23.639404,45.150333)"
           style="display:inline;fill:#0065b3;fill-opacity:1">
	<path
   class="st0"
   d="m 382.2,150.3 17.2,-17.2 7.8,7.8 c 1.9,1.9 4.3,2.8 6.7,2.8 2.4,0 4.9,-0.9 6.7,-2.8 3.7,-3.7 3.7,-9.7 0,-13.4 L 385,91.8 c -3.7,-3.7 -9.7,-3.7 -13.4,0 -3.7,3.7 -3.7,9.7 0,13.4 l 7.8,7.8 -17.2,17.2 c -32.8,-28.8 -74.4,-48 -120.1,-53 V 28.5 h 16.6 c 7.9,0 14.2,-6.4 14.2,-14.2 C 272.9,6.5 266.4,0 258.6,0 h -80.7 c -7.9,0 -14.2,6.4 -14.2,14.2 0,7.8 6.4,14.2 14.2,14.2 h 16.6 V 77.1 C 85.3,89.1 0,181.8 0,294.2 0,414.5 97.9,512.5 218.3,512.5 338.7,512.5 436.6,414.6 436.6,294.2 436.5,239.1 416,188.8 382.2,150.3 Z M 218.3,479.2 c -102,0 -185,-83 -185,-185 0,-102 83,-185 185,-185 102,0 185,83 185,185 0,102 -83,185 -185,185 z"
   id="path399"
   style="fill:#0065b3;fill-opacity:1" />
	<path
   class="st0"
   d="M 297.3,194.6 217.9,274 174,230.1 c -5.6,-5.6 -14.6,-5.6 -20.1,0 -5.6,5.6 -5.6,14.6 0,20.1 l 64,64 99.5,-99.5 c 5.6,-5.6 5.6,-14.6 0,-20.1 -5.6,-5.5 -14.6,-5.5 -20.1,0 z"
   id="path401"
   style="fill:#0065b3;fill-opacity:1" />
</g></g></g></g></svg>
