<svg xmlns="http://www.w3.org/2000/svg" width="400" height="400" fill="none" xmlns:v="https://vecta.io/nano"><style><![CDATA[.B{fill-rule:evenodd}.C{fill:#f0f8ff}.D{stroke:#0068a2}.E{stroke-width:2.003}.F{stroke-linejoin:round}]]></style><path d="M124.611 143.406l75.591-37.795 75.59 37.795-75.59 37.796-75.591-37.796z" class="B C"/><path d="M124.611 143.406l75.591-37.795 75.59 37.795-75.59 37.796-75.591-37.796z" class="D E F"/><path d="M49.021 105.611l75.591-37.795 75.591 37.795-75.591 37.795-75.59-37.795z" class="B C"/><path d="M49.021 105.611l75.591-37.795 75.591 37.795-75.591 37.795-75.59-37.795z" class="D E F"/><path d="M275.792 143.406v94.488l75.591-37.795v-94.488l-75.591 37.795z" class="B C"/><path d="M275.792 143.406v94.488l75.591-37.795v-94.488l-75.591 37.795z" class="D E F"/><path d="M275.792 237.894v94.489l75.591-37.796v-94.488l-75.591 37.795z" class="B C"/><path d="M275.792 237.894v94.489l75.591-37.796v-94.488l-75.591 37.795z" class="D E F"/><path d="M200.202 181.202v94.488l75.59-37.796v-94.488l-75.59 37.796z" class="B C"/><path d="M200.202 181.202v94.488l75.59-37.796v-94.488l-75.59 37.796z" class="D E F"/><path d="M200.202 275.69v94.488l75.59-37.795v-94.489l-75.59 37.796z" class="B C"/><path d="M200.202 275.69v94.488l75.59-37.795v-94.489l-75.59 37.796z" class="D E F"/><path d="M200.202 105.611l75.59-37.795 75.591 37.795-75.591 37.795-75.59-37.795z" class="B C"/><path d="M200.202 105.611l75.59-37.795 75.591 37.795-75.591 37.795-75.59-37.795z" class="D E F"/><path d="M124.611 67.816l75.591-37.795 75.59 37.795-75.59 37.795-75.591-37.795z" class="B C"/><path d="M124.611 67.816l75.591-37.795 75.59 37.795-75.59 37.795-75.591-37.795z" class="D E F"/><path d="M124.611 332.383v-94.489l75.591 37.796v94.488l-75.591-37.795z" class="B C"/><path d="M124.611 332.383v-94.489l75.591 37.796v94.488l-75.591-37.795z" class="D E F"/><path d="M124.611 237.894v-94.488l75.591 37.796v94.488l-75.591-37.796z" class="B C"/><path d="M124.611 237.894v-94.488l75.591 37.796v94.488l-75.591-37.796z" class="D E F"/><path d="M49.021 294.587v-94.488l75.591 37.795v94.489l-75.59-37.796z" class="B C"/><path d="M49.021 294.587v-94.488l75.591 37.795v94.489l-75.59-37.796z" class="D E F"/><path d="M49.021 200.099v-94.488l75.591 37.795v94.488l-75.59-37.795z" class="B C"/><path d="M49.021 200.099v-94.488l75.591 37.795v94.488l-75.59-37.795z" class="D E F"/><path d="M124.611 143.406v188.977L49.02 294.55v-94.451l60.473 30.236v-94.526l15.118 7.597zm-15.118 102.048l-45.354-22.678v64.215l45.354 22.677v-64.214zm204.094-105.827v-15.118l37.796-18.898v94.488l-37.796 18.898v-15.118l22.678-11.339v-26.457l-22.678 11.339v-15.118l22.678-11.339v-22.677l-22.678 11.339zM200.202 370.178V181.202l75.59-37.796v94.488l-60.472 30.237v94.488l-15.118 7.559zm15.118-117.165l45.354-22.678v-64.252l-45.354 22.678v64.252z" fill="#0068a2" class="B"/></svg>